<svg width="152" height="45" viewBox="0 0 152 45" fill="none" xmlns="http://www.w3.org/2000/svg">
<path d="M150.502 39.6875C150.502 40.2538 150.39 40.8147 150.174 41.3379C149.958 41.861 149.64 42.3363 149.241 42.7366C148.841 43.1369 148.366 43.4543 147.844 43.6706C147.322 43.887 146.762 43.998 146.197 43.9974H5.31072C4.16883 43.9986 3.07322 43.5452 2.26484 42.737C1.45645 41.9287 1.00149 40.8319 1 39.6875V5.31715C1.00149 4.17227 1.45627 3.07478 2.2645 2.26564C3.07272 1.45651 4.16832 1.00189 5.31072 1.00159H146.196C146.762 1.00159 147.321 1.11322 147.843 1.33011C148.366 1.54701 148.841 1.8649 149.24 2.26566C149.64 2.66641 149.957 3.14216 150.173 3.66574C150.39 4.18933 150.501 4.75048 150.501 5.31715L150.502 39.6875Z" fill="white"/>
<path d="M146.196 45H5.31008C3.90341 44.9997 2.5543 44.4402 1.55879 43.4442C0.563276 42.4482 0.00267652 41.0972 0 39.6874V5.31821C0.00208097 3.90779 0.56231 2.55578 1.55779 1.55878C2.55327 0.561775 3.90271 0.00119045 5.31008 0H146.195C147.603 0.00178446 148.951 0.56256 149.947 1.55944C150.942 2.55631 151.503 3.90797 151.505 5.31821V39.6874C151.507 42.6178 149.121 45 146.196 45Z" fill="#A6A6A6"/>
<path d="M150.502 39.6875C150.502 40.2538 150.39 40.8147 150.174 41.3379C149.958 41.861 149.64 42.3363 149.241 42.7366C148.841 43.1369 148.366 43.4543 147.844 43.6706C147.322 43.887 146.762 43.998 146.197 43.9974H5.31072C4.16883 43.9986 3.07322 43.5452 2.26484 42.737C1.45645 41.9287 1.00149 40.8319 1 39.6875V5.31715C1.00149 4.17227 1.45627 3.07478 2.2645 2.26564C3.07272 1.45651 4.16832 1.00189 5.31072 1.00159H146.196C146.762 1.00159 147.321 1.11322 147.843 1.33011C148.366 1.54701 148.841 1.8649 149.24 2.26566C149.64 2.66641 149.958 3.14216 150.173 3.66574C150.39 4.18933 150.501 4.75048 150.501 5.31715L150.502 39.6875Z" fill="black"/>
<path d="M33.8237 22.2629C33.7912 18.636 36.787 16.8715 36.924 16.7894C35.2273 14.3104 32.5975 13.9717 31.6734 13.9446C29.4647 13.7117 27.3222 15.2691 26.1972 15.2691C25.0495 15.2691 23.3169 13.9672 21.4496 14.0054C19.0466 14.0425 16.7986 15.4368 15.5657 17.6019C13.0213 22.0164 14.919 28.5039 17.3567 32.0722C18.5762 33.821 20.0011 35.7711 21.8662 35.7025C23.6909 35.6282 24.3724 34.5378 26.5744 34.5378C28.7562 34.5378 29.3962 35.7025 31.2984 35.6586C33.2567 35.6282 34.4896 33.9031 35.6664 32.1398C37.0756 30.1378 37.6415 28.1641 37.664 28.0628C37.619 28.047 33.8619 26.6089 33.8237 22.2629ZM30.2305 11.5972C31.2119 10.3673 31.8834 8.69389 31.697 6.99585C30.2766 7.05885 28.5001 7.98048 27.4772 9.18345C26.5722 10.2435 25.7637 11.981 25.9726 13.6149C27.5682 13.7342 29.2064 12.808 30.2305 11.5972Z" fill="white"/>
<path d="M146.199 0H70.7363L100.294 45H146.199C147.606 44.9988 148.955 44.4385 149.951 43.442C150.946 42.4455 151.507 41.0941 151.51 39.684V5.31821C151.507 3.90788 150.947 2.55605 149.951 1.55911C148.956 0.562168 147.607 0.00148757 146.199 0Z" fill="url(#paint0_linear_2510_484)"/>
<path d="M60.264 35.4517H57.7139L56.317 31.0528H51.4617L50.1311 35.4517H47.6484L52.46 20.4761H55.4311L60.264 35.4517ZM55.896 29.2074L54.6327 25.2969C54.4991 24.8975 54.2476 23.9567 53.8793 22.4758H53.8344C53.6861 23.1127 53.4492 24.0535 53.1247 25.2969L51.8828 29.2074H55.896ZM72.6134 29.9197C72.6134 31.7562 72.116 33.2078 71.1197 34.2735C70.2281 35.2221 69.12 35.6959 67.7988 35.6959C66.3715 35.6959 65.345 35.1861 64.7218 34.1644V39.8303H62.3278V28.2025C62.3278 27.049 62.2975 25.8663 62.2391 24.6532H64.3445L64.4781 26.3649H64.5231C65.3214 25.0752 66.5328 24.4304 68.1587 24.4304C69.43 24.4304 70.4913 24.9335 71.3402 25.9406C72.1877 26.95 72.6134 28.2756 72.6134 29.9197ZM70.1742 30.0074C70.1742 28.9564 69.9386 28.0899 69.4648 27.4068C68.947 26.6968 68.2521 26.3412 67.3809 26.3412C66.79 26.3412 66.2531 26.5392 65.7739 26.9297C65.2933 27.3236 64.9789 27.8378 64.8318 28.4748C64.7661 28.713 64.7288 28.9581 64.7207 29.2051V31.0067C64.7207 31.791 64.961 32.4539 65.4416 32.9962C65.9221 33.5364 66.5466 33.8076 67.3145 33.8076C68.2159 33.8076 68.918 33.4577 69.4201 32.7633C69.9228 32.0668 70.1742 31.1485 70.1742 30.0074ZM85.0063 29.9197C85.0063 31.7562 84.5089 33.2078 83.5133 34.2735C82.6204 35.2221 81.513 35.6959 80.1904 35.6959C78.7632 35.6959 77.7373 35.1861 77.1135 34.1644V39.8303H74.7197V28.2025C74.7197 27.049 74.6894 25.8663 74.6309 24.6532H76.7365L76.8701 26.3649H76.9148C77.7123 25.0752 78.9237 24.4304 80.551 24.4304C81.8209 24.4304 82.8823 24.9335 83.7331 25.9406C84.58 26.95 85.0063 28.2756 85.0063 29.9197ZM82.5665 30.0074C82.5665 28.9564 82.3296 28.0899 81.8558 27.4068C81.3379 26.6968 80.6451 26.3412 79.7739 26.3412C79.1836 26.3412 78.6467 26.5392 78.165 26.9297C77.684 27.3236 77.3708 27.8378 77.2241 28.4748C77.151 28.7719 77.1116 29.0138 77.1116 29.2051V31.0067C77.1116 31.791 77.3531 32.4539 77.8314 32.9962C78.3118 33.5353 78.9362 33.8076 79.7067 33.8076C80.6095 33.8076 81.311 33.4577 81.8117 32.7633C82.3151 32.0668 82.5665 31.1485 82.5665 30.0074ZM98.8627 31.2509C98.8627 32.5259 98.4179 33.5623 97.5342 34.3624C96.5623 35.2356 95.2048 35.6734 93.4637 35.6734C91.8562 35.6734 90.5672 35.3628 89.5946 34.7405L90.148 32.7408C91.1982 33.3642 92.351 33.6748 93.6065 33.6748C94.5093 33.6748 95.2114 33.47 95.7121 33.0638C96.2142 32.6565 96.4675 32.1118 96.4675 31.4321C96.4675 30.8233 96.2576 30.3135 95.8457 29.8983C95.4312 29.4842 94.7462 29.0982 93.7842 28.7437C91.1679 27.7658 89.8585 26.3356 89.8585 24.454C89.8585 23.2252 90.3211 22.2192 91.2443 21.4326C92.1668 20.6471 93.3914 20.2544 94.914 20.2544C96.2734 20.2544 97.4065 20.4918 98.306 20.9656L97.7053 22.9213C96.8584 22.4623 95.903 22.2327 94.8337 22.2327C93.9895 22.2327 93.3269 22.4409 92.8531 22.855C92.4543 23.2252 92.2523 23.6765 92.2523 24.2121C92.2523 24.8029 92.4826 25.2935 92.9406 25.6784C93.3381 26.0329 94.0638 26.4189 95.1127 26.8329C96.3991 27.3528 97.3447 27.9583 97.95 28.6537C98.5593 29.3492 98.8627 30.2168 98.8627 31.2509ZM106.798 26.4537H104.16V31.6965C104.16 33.03 104.624 33.6951 105.557 33.6951C105.984 33.6951 106.339 33.6591 106.62 33.5837L106.686 35.4056C106.215 35.5822 105.593 35.6711 104.824 35.6711C103.879 35.6711 103.14 35.3819 102.607 34.8035C102.075 34.2251 101.808 33.2562 101.808 31.8923V26.4492H100.236V24.6487H101.808V22.6716L104.16 21.9604V24.6487H106.798V26.4537ZM118.681 29.9636C118.681 31.6234 118.207 32.9862 117.261 34.0518C116.272 35.149 114.956 35.6959 113.315 35.6959C111.732 35.6959 110.473 35.1703 109.535 34.1204C108.596 33.0683 108.127 31.7427 108.127 30.1436C108.127 28.4703 108.612 27.0996 109.578 26.034C110.548 24.9672 111.852 24.4338 113.493 24.4338C115.074 24.4338 116.344 24.9605 117.305 26.0115C118.223 27.031 118.681 28.3476 118.681 29.9636ZM116.199 30.0187C116.199 29.0295 115.985 28.181 115.558 27.471C115.056 26.6135 114.337 26.1848 113.407 26.1848C112.447 26.1848 111.712 26.6135 111.211 27.471C110.782 28.181 110.569 29.0442 110.569 30.0637C110.569 31.054 110.782 31.9047 111.211 32.6125C111.729 33.47 112.451 33.8988 113.386 33.8988C114.302 33.8988 115.019 33.461 115.537 32.5912C115.977 31.8642 116.199 31.0101 116.199 30.0187ZM126.465 26.7632C126.216 26.7181 125.964 26.6959 125.711 26.6968C124.869 26.6968 124.217 27.0141 123.759 27.6533C123.362 28.216 123.162 28.9272 123.162 29.7858V35.4517H120.768V28.0539C120.77 26.9204 120.747 25.7869 120.698 24.6544H122.783L122.871 26.7204H122.937C123.191 26.0104 123.589 25.4376 124.134 25.0088C124.634 24.6342 125.241 24.4313 125.865 24.4304C126.086 24.4304 126.286 24.4462 126.463 24.4743L126.465 26.7632ZM137.172 29.5416C137.178 29.9063 137.149 30.2707 137.084 30.6297H129.902C129.929 31.6965 130.277 32.5135 130.945 33.0762C131.55 33.5781 132.332 33.8302 133.294 33.8302C134.357 33.8302 135.327 33.6613 136.199 33.3204L136.574 34.9847C135.555 35.4303 134.351 35.652 132.963 35.652C131.291 35.652 129.98 35.1591 129.026 34.1756C128.074 33.191 127.596 31.8676 127.596 30.21C127.596 28.5828 128.039 27.2268 128.928 26.1454C129.858 24.9908 131.114 24.4135 132.695 24.4135C134.248 24.4135 135.424 24.9908 136.222 26.1454C136.854 27.0603 137.172 28.1946 137.172 29.5416ZM134.889 28.9192C134.906 28.207 134.749 27.5937 134.424 27.0749C134.01 26.4064 133.372 26.0734 132.518 26.0734C131.735 26.0734 131.097 26.3986 130.612 27.0513C130.214 27.57 129.977 28.1935 129.904 28.917L134.889 28.9192Z" fill="white"/>
<path d="M50.7682 15.1816C50.1024 15.1816 49.5264 15.1489 49.0469 15.0938V7.85356C49.7175 7.74973 50.3951 7.69855 51.0737 7.7005C53.8191 7.7005 55.0834 9.05426 55.0834 11.261C55.0834 13.8064 53.59 15.1816 50.7682 15.1816ZM51.1703 8.62884C50.7997 8.62884 50.4842 8.65141 50.2225 8.70541V14.2093C50.364 14.2318 50.6358 14.2419 51.0175 14.2419C52.8164 14.2419 53.8405 13.2156 53.8405 11.2936C53.8405 9.57975 52.9141 8.62884 51.1703 8.62884ZM59.0237 15.2367C57.4763 15.2367 56.4736 14.0787 56.4736 12.5067C56.4736 10.8682 57.4977 9.70018 59.1112 9.70018C60.6361 9.70018 61.6613 10.8029 61.6613 12.4201C61.6613 14.0787 60.6047 15.2367 59.0237 15.2367ZM59.0685 10.5622C58.2185 10.5622 57.674 11.3589 57.674 12.4729C57.674 13.5656 58.2298 14.3623 59.0574 14.3623C59.8849 14.3623 60.4407 13.5105 60.4407 12.4504C60.4407 11.3701 59.8961 10.5622 59.0685 10.5622ZM70.4851 9.80932L68.8289 15.1163H67.7498L67.0635 12.8116C66.8931 12.2479 66.7509 11.6759 66.6377 11.0978H66.6154C66.5292 11.6762 66.3653 12.2558 66.191 12.8116L65.4611 15.1163H64.3708L62.8122 9.80932H64.0216L64.6212 12.3323C64.7627 12.9332 64.8817 13.5003 64.9805 14.036H65.003C65.0894 13.5892 65.2309 13.0311 65.4387 12.3435L66.191 9.81046H67.1497L67.8695 12.2895C68.0439 12.8904 68.1854 13.4801 68.2953 14.0371H68.3269C68.4032 13.4913 68.5229 12.9118 68.6861 12.2895L69.3297 9.81046L70.4851 9.80932ZM76.5822 15.1163H75.4051V12.0689C75.4051 11.1304 75.0458 10.6601 74.3371 10.6601C73.6403 10.6601 73.1606 11.261 73.1606 11.9598V15.1163H71.9841V11.3262C71.9841 10.857 71.9729 10.354 71.94 9.80817H72.9757L73.0303 10.6274H73.0632C73.3797 10.0602 74.0219 9.70018 74.7418 9.70018C75.8532 9.70018 76.5829 10.552 76.5829 11.9384L76.5822 15.1163ZM79.8269 15.1163H78.649V7.37415H79.8269V15.1163ZM84.1177 15.2367C82.5714 15.2367 81.568 14.0787 81.568 12.5067C81.568 10.8682 82.5918 9.70018 84.2039 9.70018C85.7299 9.70018 86.7544 10.8029 86.7544 12.4201C86.755 14.0787 85.6976 15.2367 84.1177 15.2367ZM84.1612 10.5622C83.3117 10.5622 82.7668 11.3589 82.7668 12.4729C82.7668 13.5656 83.3235 14.3623 84.1493 14.3623C84.9778 14.3623 85.5325 13.5105 85.5325 12.4504C85.5338 11.3701 84.9903 10.5622 84.1612 10.5622ZM91.394 15.1163L91.3085 14.5052H91.2769C90.9176 14.997 90.3932 15.2367 89.7286 15.2367C88.7797 15.2367 88.1059 14.5705 88.1059 13.6747C88.1059 12.3649 89.239 11.6874 91.2005 11.6874V11.5896C91.2005 10.8907 90.8314 10.5408 90.1017 10.5408C89.5792 10.5408 89.1212 10.6724 88.7179 10.9347L88.479 10.1593C88.9686 9.85317 89.5792 9.70018 90.2971 9.70018C91.6802 9.70018 92.3784 10.4316 92.3784 11.8956V13.8503C92.3784 14.3859 92.4021 14.8012 92.4547 15.1174L91.394 15.1163ZM91.2321 12.4729C89.9253 12.4729 89.2693 12.7903 89.2693 13.5431C89.2693 14.1001 89.6075 14.3724 90.0767 14.3724C90.6755 14.3724 91.2321 13.9145 91.2321 13.2922V12.4729ZM98.0932 15.1163L98.0379 14.2644H98.0057C97.6675 14.9081 97.0989 15.2367 96.3054 15.2367C95.0288 15.2367 94.0833 14.1114 94.0833 12.5281C94.0833 10.8682 95.0637 9.69903 96.4021 9.69903C97.1108 9.69903 97.6122 9.93874 97.8951 10.4204H97.9188V7.37415H99.0966V13.686C99.0966 14.1992 99.1091 14.6797 99.1407 15.1163H98.0932ZM97.9188 11.9936C97.9188 11.2509 97.4279 10.6173 96.6791 10.6173C95.8066 10.6173 95.2736 11.3926 95.2736 12.4842C95.2736 13.5543 95.827 14.2869 96.6554 14.2869C97.3957 14.2869 97.9188 13.6421 97.9188 12.878V11.9936ZM106.565 15.2367C105.019 15.2367 104.016 14.0787 104.016 12.5067C104.016 10.8682 105.04 9.70018 106.653 9.70018C108.178 9.70018 109.203 10.8029 109.203 12.4201C109.204 14.0787 108.148 15.2367 106.565 15.2367ZM106.609 10.5622C105.76 10.5622 105.215 11.3589 105.215 12.4729C105.215 13.5656 105.771 14.3623 106.598 14.3623C107.426 14.3623 107.981 13.5105 107.981 12.4504C107.983 11.3701 107.439 10.5622 106.609 10.5622ZM115.531 15.1163H114.353V12.0689C114.353 11.1304 113.994 10.6601 113.285 10.6601C112.588 10.6601 112.11 11.261 112.11 11.9598V15.1163H110.932V11.3262C110.932 10.857 110.921 10.354 110.888 9.80817H111.923L111.978 10.6274H112.011C112.327 10.0602 112.97 9.69903 113.689 9.69903C114.8 9.69903 115.531 10.5509 115.531 11.9373V15.1163ZM123.449 10.6938H122.154V13.2708C122.154 13.9268 122.381 14.2543 122.839 14.2543C123.047 14.2543 123.221 14.2318 123.361 14.1992L123.394 15.0949C123.166 15.1827 122.86 15.2266 122.481 15.2266C121.553 15.2266 120.998 14.7134 120.998 13.3698V10.6938H120.226V9.80932H120.998V8.83705L122.154 8.48706V9.80817H123.449V10.6938ZM129.678 15.1163H128.503V12.0914C128.503 11.1417 128.144 10.6612 127.435 10.6612C126.825 10.6612 126.257 11.0764 126.257 11.917V15.1163H125.081V7.37415H126.257V10.5622H126.28C126.651 9.98374 127.188 9.69903 127.873 9.69903C128.993 9.69903 129.678 10.5723 129.678 11.9598V15.1163ZM136.061 12.7464H132.529C132.552 13.7512 133.216 14.3185 134.198 14.3185C134.72 14.3185 135.201 14.2307 135.625 14.0675L135.808 14.8867C135.308 15.105 134.718 15.2142 134.032 15.2142C132.375 15.2142 131.395 14.1654 131.395 12.5393C131.395 10.9122 132.399 9.68889 133.899 9.68889C135.252 9.68889 136.101 10.6938 136.101 12.2118C136.109 12.391 136.095 12.5704 136.061 12.7464ZM134.982 11.9058C134.982 11.0866 134.57 10.5082 133.817 10.5082C133.141 10.5082 132.607 11.0978 132.531 11.9058H134.982Z" fill="white"/>
<defs>
<linearGradient id="paint0_linear_2510_484" x1="111.122" y1="45.1195" x2="111.122" y2="-117.172" gradientUnits="userSpaceOnUse">
<stop stop-color="#1A1A1A" stop-opacity="0.1"/>
<stop offset="0.123" stop-color="#212121" stop-opacity="0.151"/>
<stop offset="0.308" stop-color="#353535" stop-opacity="0.227"/>
<stop offset="0.532" stop-color="#575757" stop-opacity="0.318"/>
<stop offset="0.783" stop-color="#858585" stop-opacity="0.421"/>
<stop offset="1" stop-color="#B3B3B3" stop-opacity="0.51"/>
</linearGradient>
</defs>
</svg>
