<svg width="24" height="24" viewBox="0 0 24 24" fill="none" xmlns="http://www.w3.org/2000/svg">
<g id="vuesax/bold/bag-2">
<g id="bag-2">
<path id="Vector" d="M19.9597 8.96002C19.2897 8.22002 18.2797 7.79002 16.8797 7.64002V6.88002C16.8797 5.51002 16.2997 4.19002 15.2797 3.27002C14.2497 2.33002 12.9097 1.89002 11.5197 2.02002C9.12975 2.25002 7.11975 4.56002 7.11975 7.06002V7.64002C5.71975 7.79002 4.70975 8.22002 4.03975 8.96002C3.06975 10.04 3.09975 11.48 3.20975 12.48L3.90975 18.05C4.11975 20 4.90975 22 9.20975 22H14.7897C19.0897 22 19.8797 20 20.0897 18.06L20.7897 12.47C20.8997 11.48 20.9197 10.04 19.9597 8.96002ZM11.6597 3.41002C12.6597 3.32002 13.6097 3.63002 14.3497 4.30002C15.0797 4.96002 15.4897 5.90002 15.4897 6.88002V7.58002H8.50975V7.06002C8.50975 5.28002 9.97975 3.57002 11.6597 3.41002ZM8.41975 13.15H8.40975C7.85975 13.15 7.40975 12.7 7.40975 12.15C7.40975 11.6 7.85975 11.15 8.40975 11.15C8.96975 11.15 9.41975 11.6 9.41975 12.15C9.41975 12.7 8.96975 13.15 8.41975 13.15ZM15.4197 13.15H15.4097C14.8597 13.15 14.4097 12.7 14.4097 12.15C14.4097 11.6 14.8597 11.15 15.4097 11.15C15.9697 11.15 16.4197 11.6 16.4197 12.15C16.4197 12.7 15.9697 13.15 15.4197 13.15Z" fill="white"/>
</g>
</g>
</svg>
