<svg width="143" height="35" viewBox="0 0 143 35" fill="none" xmlns="http://www.w3.org/2000/svg">
<path d="M46.5608 4.81383C46.5608 5.79906 46.3145 6.6611 45.6987 7.2768C44.9598 8.01571 44.0978 8.38516 42.9895 8.38516C41.8811 8.38516 41.0191 8.01571 40.2802 7.2768C39.5413 6.53797 39.1719 5.67586 39.1719 4.56758C39.1719 3.45922 39.5413 2.59719 40.2802 1.85828C41.0191 1.11938 41.8811 0.75 42.9895 0.75C43.482 0.75 43.9746 0.873126 44.4673 1.11938C44.9598 1.36571 45.3293 1.61203 45.5756 1.98148L44.9598 2.59719C44.4673 1.98148 43.8515 1.73516 42.9895 1.73516C42.2505 1.73516 41.5116 1.98148 41.0191 2.59719C40.4034 3.08977 40.157 3.82867 40.157 4.69071C40.157 5.55274 40.4034 6.29164 41.0191 6.78422C41.6348 7.2768 42.2505 7.64625 42.9895 7.64625C43.8515 7.64625 44.4673 7.4 45.083 6.78422C45.4524 6.41477 45.6987 5.92219 45.6987 5.30648H42.9895V4.32125H46.5608V4.81383ZM52.2255 1.73516H48.9006V4.075H51.9793V4.93703H48.9006V7.2768H52.2255V8.26203H47.9154V0.873126H52.2255V1.73516ZM56.2895 8.26203H55.3043V1.73516H53.2108V0.873126H58.383V1.73516H56.2895V8.26203ZM61.9542 8.26203V0.873126H62.9393V8.26203H61.9542ZM67.1268 8.26203H66.1416V1.73516H64.0479V0.873126H69.0971V1.73516H67.0034V8.26203H67.1268ZM78.8253 7.2768C78.0869 8.01571 77.2245 8.38516 76.1166 8.38516C75.008 8.38516 74.1456 8.01571 73.4072 7.2768C72.6682 6.53797 72.2987 5.67586 72.2987 4.56758C72.2987 3.45922 72.6682 2.59719 73.4072 1.85828C74.1456 1.11938 75.008 0.75 76.1166 0.75C77.2245 0.75 78.0869 1.11938 78.8253 1.85828C79.5643 2.59719 79.9338 3.45922 79.9338 4.56758C79.9338 5.67586 79.5643 6.53797 78.8253 7.2768ZM74.1463 6.6611C74.6385 7.15367 75.3776 7.52313 76.1166 7.52313C76.8549 7.52313 77.594 7.2768 78.0869 6.6611C78.5792 6.16852 78.9487 5.42961 78.9487 4.56758C78.9487 3.70555 78.7026 2.96664 78.0869 2.47406C77.594 1.98148 76.8549 1.61203 76.1166 1.61203C75.3776 1.61203 74.6385 1.85828 74.1463 2.47406C73.6534 2.96664 73.2838 3.70555 73.2838 4.56758C73.2838 5.42961 73.5299 6.16852 74.1463 6.6611ZM81.2885 8.26203V0.873126H82.3971L85.9682 6.6611V0.873126H86.9534V8.26203H85.9682L82.1503 2.22774V8.26203H81.2885Z" fill="black" stroke="#585858" stroke-width="0.246296" stroke-miterlimit="10"/>
<path d="M72.0509 19.0966C69.0955 19.0966 66.7556 21.3132 66.7556 24.392C66.7556 27.3475 69.0955 29.6873 72.0509 29.6873C75.0064 29.6873 77.3462 27.4706 77.3462 24.392C77.3462 21.1901 75.0064 19.0966 72.0509 19.0966ZM72.0509 27.4706C70.4501 27.4706 69.0955 26.116 69.0955 24.2688C69.0955 22.4216 70.4501 21.067 72.0509 21.067C73.6517 21.067 75.0064 22.2984 75.0064 24.2688C75.0064 26.116 73.6517 27.4706 72.0509 27.4706ZM60.598 19.0966C57.6424 19.0966 55.3026 21.3132 55.3026 24.392C55.3026 27.3475 57.6424 29.6873 60.598 29.6873C63.5533 29.6873 65.8932 27.4706 65.8932 24.392C65.8932 21.1901 63.5533 19.0966 60.598 19.0966ZM60.598 27.4706C58.997 27.4706 57.6424 26.116 57.6424 24.2688C57.6424 22.4216 58.997 21.067 60.598 21.067C62.1986 21.067 63.5533 22.2984 63.5533 24.2688C63.5533 26.116 62.1986 27.4706 60.598 27.4706ZM46.9285 20.6975V22.9141H52.2239C52.1008 24.1456 51.6082 25.1308 50.9924 25.7466C50.2535 26.4855 49.022 27.3475 46.9285 27.3475C43.6035 27.3475 41.1406 24.7613 41.1406 21.4363C41.1406 18.1113 43.7267 15.5252 46.9285 15.5252C48.6526 15.5252 50.0073 16.2641 50.9924 17.1262L52.5934 15.5252C51.2388 14.2938 49.5147 13.3086 47.0517 13.3086C42.6184 13.3086 38.8008 17.003 38.8008 21.4363C38.8008 25.8697 42.6184 29.5641 47.0517 29.5641C49.5147 29.5641 51.2388 28.8252 52.7165 27.2243C54.1943 25.7466 54.6869 23.653 54.6869 22.0521C54.6869 21.5595 54.6869 21.067 54.5638 20.6975H46.9285ZM102.838 22.4216C102.345 21.1901 101.113 19.0966 98.4048 19.0966C95.6955 19.0966 93.4783 21.1901 93.4783 24.392C93.4783 27.3475 95.6955 29.6873 98.6509 29.6873C100.991 29.6873 102.468 28.2095 102.961 27.3475L101.237 26.116C100.621 26.978 99.8822 27.5938 98.6509 27.5938C97.4189 27.5938 96.6806 27.1012 96.065 25.9928L103.084 23.0373L102.838 22.4216ZM95.6955 24.1456C95.6955 22.1752 97.2963 21.067 98.4048 21.067C99.2666 21.067 100.128 21.5595 100.375 22.1752L95.6955 24.1456ZM89.9072 29.1947H92.247V13.8012H89.9072V29.1947ZM86.2127 20.2048C85.597 19.5891 84.6119 18.9734 83.3806 18.9734C80.7939 18.9734 78.3314 21.3132 78.3314 24.2688C78.3314 27.2243 80.6712 29.441 83.3806 29.441C84.6119 29.441 85.597 28.8252 86.09 28.2095H86.2127V28.9484C86.2127 30.9188 85.1048 32.0271 83.3806 32.0271C82.0259 32.0271 81.0408 31.042 80.7939 30.1798L78.8236 31.042C79.44 32.3966 80.9174 34.1206 83.5033 34.1206C86.2127 34.1206 88.4298 32.5197 88.4298 28.7021V19.3428H86.2127V20.2048ZM83.5033 27.4706C81.9025 27.4706 80.5478 26.116 80.5478 24.2688C80.5478 22.4216 81.9025 21.067 83.5033 21.067C85.1048 21.067 86.3361 22.4216 86.3361 24.2688C86.3361 26.116 85.1048 27.4706 83.5033 27.4706ZM113.552 13.8012H108.01V29.1947H110.35V23.4067H113.552C116.138 23.4067 118.601 21.5595 118.601 18.604C118.601 15.6484 116.138 13.8012 113.552 13.8012ZM113.675 21.1901H110.35V15.8947H113.675C115.399 15.8947 116.384 17.3725 116.384 18.4808C116.261 19.8355 115.276 21.1901 113.675 21.1901ZM127.837 18.9734C126.113 18.9734 124.388 19.7123 123.773 21.3132L125.867 22.1752C126.359 21.3132 127.098 21.067 127.96 21.067C129.192 21.067 130.3 21.8058 130.423 23.0373V23.1605C130.053 22.9141 129.068 22.5447 128.083 22.5447C125.867 22.5447 123.65 23.7762 123.65 25.9928C123.65 28.0863 125.497 29.441 127.467 29.441C129.068 29.441 129.807 28.7021 130.423 27.9632H130.546V29.1947H132.763V23.2836C132.517 20.5743 130.423 18.9734 127.837 18.9734ZM127.591 27.4706C126.852 27.4706 125.743 27.1012 125.743 26.116C125.743 24.8845 127.098 24.5151 128.206 24.5151C129.192 24.5151 129.684 24.7613 130.3 25.0077C130.053 26.4855 128.822 27.4706 127.591 27.4706ZM140.521 19.3428L137.935 25.9928H137.812L135.103 19.3428H132.64L136.703 28.7021L134.363 33.8743H136.703L142.984 19.3428H140.521ZM119.832 29.1947H122.172V13.8012H119.832V29.1947Z" fill="black"/>
<path d="M0.99258 1.4873C0.623127 1.85676 0.5 2.47246 0.5 3.21137V30.4271C0.5 31.166 0.746254 31.7818 1.11571 32.1511L1.23883 32.2743L16.5092 17.0039V16.7576L0.99258 1.4873Z" fill="url(#paint0_linear_2318_252)"/>
<path d="M21.4377 22.1746L16.3887 17.1255V16.7561L21.4377 11.707L21.5609 11.8302L27.5952 15.2783C29.3192 16.2635 29.3192 17.8645 27.5952 18.8496L21.4377 22.1746Z" fill="url(#paint1_linear_2318_252)"/>
<path d="M21.5579 22.055L16.3857 16.8828L0.992188 32.2763C1.60789 32.892 2.46992 32.892 3.57828 32.3995L21.5579 22.055Z" fill="url(#paint2_linear_2318_252)"/>
<path d="M21.5579 11.7081L3.57828 1.48686C2.46992 0.871085 1.60789 0.994284 0.992188 1.60999L16.3857 16.8804L21.5579 11.7081Z" fill="url(#paint3_linear_2318_252)"/>
<path opacity="0.2" d="M21.4348 21.9316L3.57828 32.0298C2.59312 32.6455 1.73109 32.5223 1.11531 32.0298L0.992188 32.1529L1.11531 32.2761C1.73109 32.7687 2.59312 32.8918 3.57828 32.2761L21.4348 21.9316Z" fill="black"/>
<path opacity="0.12" d="M0.99258 32.03C0.623127 31.6605 0.5 31.0448 0.5 30.3059V30.4291C0.5 31.168 0.746254 31.7837 1.11571 32.1532V32.03H0.99258ZM27.5926 18.4837L21.4352 21.9319L21.5583 22.055L27.5926 18.6069C28.4546 18.1143 28.8241 17.4985 28.8241 16.8828C28.8241 17.4985 28.3314 17.9911 27.5926 18.4837Z" fill="black"/>
<path opacity="0.25" d="M3.57867 1.61039L27.5926 15.2798C28.3314 15.7724 28.8241 16.265 28.8241 16.8808C28.8241 16.265 28.4546 15.6493 27.5926 15.1566L3.57867 1.48719C1.85461 0.502033 0.5 1.24094 0.5 3.21133V3.33445C0.5 1.48719 1.85461 0.62516 3.57867 1.61039Z" fill="white"/>
<defs>
<linearGradient id="paint0_linear_2318_252" x1="15.0314" y1="2.97738" x2="-5.6365" y2="23.6441" gradientUnits="userSpaceOnUse">
<stop stop-color="#00A0FF"/>
<stop offset="0.007" stop-color="#00A1FF"/>
<stop offset="0.26" stop-color="#00BEFF"/>
<stop offset="0.512" stop-color="#00D2FF"/>
<stop offset="0.76" stop-color="#00DFFF"/>
<stop offset="1" stop-color="#00E3FF"/>
</linearGradient>
<linearGradient id="paint1_linear_2318_252" x1="29.8537" y1="16.8805" x2="0.055515" y2="16.8805" gradientUnits="userSpaceOnUse">
<stop stop-color="#FFE000"/>
<stop offset="0.409" stop-color="#FFBD00"/>
<stop offset="0.775" stop-color="#FFA500"/>
<stop offset="1" stop-color="#FF9C00"/>
</linearGradient>
<linearGradient id="paint2_linear_2318_252" x1="18.7587" y1="19.7103" x2="-9.2673" y2="47.7363" gradientUnits="userSpaceOnUse">
<stop stop-color="#FF3A44"/>
<stop offset="1" stop-color="#C31162"/>
</linearGradient>
<linearGradient id="paint3_linear_2318_252" x1="-2.82909" y1="-7.53253" x2="9.68641" y2="4.98305" gradientUnits="userSpaceOnUse">
<stop stop-color="#32A071"/>
<stop offset="0.069" stop-color="#2DA771"/>
<stop offset="0.476" stop-color="#15CF74"/>
<stop offset="0.801" stop-color="#06E775"/>
<stop offset="1" stop-color="#00F076"/>
</linearGradient>
</defs>
</svg>
