<svg width="24" height="24" viewBox="0 0 24 24" fill="none" xmlns="http://www.w3.org/2000/svg">
<g id="Frame">
<path id="Vector" d="M16.5595 2.03422C16.7478 1.68128 17.2536 1.68129 17.4419 2.03423L18.2479 3.54558C18.2946 3.63311 18.3662 3.70478 18.4538 3.75146L19.9651 4.55753C20.318 4.74576 20.318 5.25164 19.9651 5.43988L18.4538 6.24593C18.3662 6.29261 18.2946 6.36428 18.2479 6.45181L17.4419 7.96316C17.2536 8.3161 16.7478 8.31611 16.5595 7.96317L15.7534 6.45181C15.7067 6.36428 15.6351 6.29261 15.5475 6.24593L14.0362 5.43988C13.6833 5.25164 13.6833 4.74576 14.0362 4.55752L15.5475 3.75146C15.6351 3.70478 15.7067 3.63312 15.7534 3.54559L16.5595 2.03422ZM7.55947 5.15924C7.74771 4.8063 8.25359 4.8063 8.44183 5.15924L10.5957 9.19776C10.6424 9.28529 10.714 9.35696 10.8016 9.40364L14.8401 11.5575C15.193 11.7458 15.193 12.2517 14.8401 12.4399L10.8016 14.5937C10.714 14.6404 10.6424 14.7121 10.5957 14.7996L8.44183 18.8381C8.25359 19.1911 7.74771 19.1911 7.55947 18.8381L5.40559 14.7996C5.35891 14.7121 5.28724 14.6404 5.19971 14.5937L1.1612 12.4399C0.808257 12.2517 0.808253 11.7458 1.16119 11.5575L5.19971 9.40364C5.28724 9.35696 5.35891 9.28529 5.40559 9.19776L7.55947 5.15924ZM19.8016 16.4036C19.714 16.3569 19.6424 16.2853 19.5957 16.1977L18.4419 14.0342C18.2536 13.6813 17.7478 13.6813 17.5595 14.0342L16.4056 16.1978C16.3589 16.2853 16.2873 16.3569 16.1997 16.4036L14.0362 17.5575C13.6833 17.7458 13.6833 18.2517 14.0362 18.4399L16.1997 19.5937C16.2873 19.6404 16.3589 19.7121 16.4056 19.7996L17.5595 21.9631C17.7478 22.3161 18.2536 22.316 18.4419 21.9631L19.5957 19.7996C19.6424 19.7121 19.714 19.6404 19.8016 19.5937L21.9651 18.4399C22.318 18.2517 22.318 17.7458 21.9651 17.5575L19.8016 16.4036Z" fill="white"/>
</g>
</svg>
