<svg width="152" height="45" viewBox="0 0 152 45" fill="none" xmlns="http://www.w3.org/2000/svg">
<path d="M146.371 45H5.62963C2.47704 45 0 42.525 0 39.375V5.625C0 2.475 2.47704 0 5.62963 0H146.371C149.523 0 152 2.475 152 5.625V39.375C152 42.525 149.523 45 146.371 45Z" fill="black"/>
<path d="M146.371 0.900001C148.96 0.900001 151.099 3.0375 151.099 5.62499V39.375C151.099 41.9625 148.96 44.1 146.371 44.1H5.62963C3.04 44.1 0.900743 41.9625 0.900743 39.375V5.62499C0.900743 3.0375 3.04 0.900001 5.62963 0.900001H146.371ZM146.371 0H5.62963C2.47704 0 0 2.5875 0 5.62499V39.375C0 42.525 2.47704 45 5.62963 45H146.371C149.523 45 152 42.525 152 39.375V5.62499C152 2.5875 149.523 0 146.371 0Z" fill="#A6A6A6"/>
<path d="M52.8041 11.7258C52.8041 12.629 52.5773 13.4194 52.0103 13.9838C51.3299 14.6613 50.5361 15 49.5155 15C48.4948 15 47.701 14.6613 47.0206 13.9838C46.3402 13.3065 46 12.5161 46 11.5C46 10.4838 46.3402 9.69352 47.0206 9.01609C47.701 8.33865 48.4948 8 49.5155 8C49.969 8 50.4226 8.11288 50.8763 8.33865C51.3299 8.56449 51.6701 8.79032 51.8969 9.12904L51.3299 9.69353C50.8763 9.12904 50.3093 8.9032 49.5155 8.9032C48.835 8.9032 48.1546 9.12904 47.701 9.69353C47.134 10.1451 46.9072 10.8226 46.9072 11.6129C46.9072 12.4032 47.134 13.0806 47.701 13.5322C48.268 13.9838 48.835 14.3226 49.5155 14.3226C50.3093 14.3226 50.8763 14.0968 51.4433 13.5322C51.7835 13.1935 52.0103 12.7419 52.0103 12.1774H49.5155V11.2742H52.8041V11.7258ZM58.0206 8.9032H54.9587V11.0484H57.7938V11.8387H54.9587V13.9838H58.0206V14.8871H54.0515V8.11288H58.0206V8.9032ZM61.7629 14.8871H60.8557V8.9032H58.9278V8.11288H63.6907V8.9032H61.7629V14.8871ZM66.9793 14.8871V8.11288H67.8864V14.8871H66.9793ZM71.7425 14.8871H70.8353V8.9032H68.9073V8.11288H73.5569V8.9032H71.6289V14.8871H71.7425ZM82.5152 13.9838C81.8353 14.6613 81.0411 15 80.0209 15C79 15 78.2058 14.6613 77.526 13.9838C76.8454 13.3065 76.5051 12.5161 76.5051 11.5C76.5051 10.4838 76.8454 9.69352 77.526 9.01609C78.2058 8.33865 79 8 80.0209 8C81.0411 8 81.8353 8.33865 82.5152 9.01609C83.1957 9.69352 83.536 10.4838 83.536 11.5C83.536 12.5161 83.1957 13.3065 82.5152 13.9838ZM78.2065 13.4194C78.6598 13.871 79.3403 14.2097 80.0209 14.2097C80.7008 14.2097 81.3813 13.9838 81.8353 13.4194C82.2885 12.9678 82.6288 12.2903 82.6288 11.5C82.6288 10.7097 82.4022 10.0322 81.8353 9.58064C81.3813 9.12904 80.7008 8.79032 80.0209 8.79032C79.3403 8.79032 78.6598 9.01609 78.2065 9.58064C77.7526 10.0322 77.4123 10.7097 77.4123 11.5C77.4123 12.2903 77.6389 12.9678 78.2065 13.4194ZM84.7835 14.8871V8.11288H85.8043L89.0928 13.4194V8.11288H90V14.8871H89.0928L85.577 9.35481V14.8871H84.7835Z" fill="white" stroke="white" stroke-width="0.22451" stroke-miterlimit="10"/>
<path d="M76.3194 24.284C73.6244 24.284 71.4908 26.3077 71.4908 29.1184C71.4908 31.8166 73.6244 33.9526 76.3194 33.9526C79.0144 33.9526 81.148 31.929 81.148 29.1184C81.148 26.1953 79.0144 24.284 76.3194 24.284ZM76.3194 31.929C74.8597 31.929 73.6244 30.6923 73.6244 29.0059C73.6244 27.3195 74.8597 26.0829 76.3194 26.0829C77.7791 26.0829 79.0144 27.2071 79.0144 29.0059C79.0144 30.6923 77.7791 31.929 76.3194 31.929ZM65.8759 24.284C63.1809 24.284 61.0473 26.3077 61.0473 29.1184C61.0473 31.8166 63.1809 33.9526 65.8759 33.9526C68.5708 33.9526 70.7044 31.929 70.7044 29.1184C70.7044 26.1953 68.5708 24.284 65.8759 24.284ZM65.8759 31.929C64.4161 31.929 63.1809 30.6923 63.1809 29.0059C63.1809 27.3195 64.4161 26.0829 65.8759 26.0829C67.3355 26.0829 68.5708 27.2071 68.5708 29.0059C68.5708 30.6923 67.3355 31.929 65.8759 31.929ZM53.4113 25.7456V27.7692H58.24C58.1277 28.8935 57.6785 29.7929 57.117 30.355C56.4433 31.0296 55.3203 31.8166 53.4113 31.8166C50.3794 31.8166 48.1335 29.4556 48.1335 26.4201C48.1335 23.3846 50.4918 21.0236 53.4113 21.0236C54.9834 21.0236 56.2187 21.6982 57.117 22.4852L58.5769 21.0236C57.3417 19.8994 55.7696 19 53.5237 19C49.4811 19 46 22.3728 46 26.4201C46 30.4674 49.4811 33.8402 53.5237 33.8402C55.7696 33.8402 57.3417 33.1657 58.6891 31.7041C60.0367 30.355 60.4858 28.4438 60.4858 26.9822C60.4858 26.5326 60.4858 26.0829 60.3736 25.7456H53.4113ZM104.392 27.3195C103.944 26.1953 102.82 24.284 100.35 24.284C97.8798 24.284 95.8581 26.1953 95.8581 29.1184C95.8581 31.8166 97.8798 33.9526 100.575 33.9526C102.708 33.9526 104.056 32.6036 104.505 31.8166L102.933 30.6923C102.371 31.4793 101.698 32.0414 100.575 32.0414C99.4514 32.0414 98.7781 31.5917 98.2168 30.5799L104.617 27.8816L104.392 27.3195ZM97.8798 28.8935C97.8798 27.0947 99.3395 26.0829 100.35 26.0829C101.136 26.0829 101.922 26.5326 102.147 27.0947L97.8798 28.8935ZM92.6017 33.5029H94.7354V19.4497H92.6017V33.5029ZM89.2329 25.2958C88.6715 24.7337 87.7732 24.1716 86.6504 24.1716C84.2918 24.1716 82.0463 26.3077 82.0463 29.0059C82.0463 31.7041 84.1799 33.7278 86.6504 33.7278C87.7732 33.7278 88.6715 33.1657 89.121 32.6036H89.2329V33.2781C89.2329 35.0769 88.2227 36.0888 86.6504 36.0888C85.4152 36.0888 84.5168 35.1894 84.2918 34.4023L82.4951 35.1894C83.0571 36.426 84.4043 38 86.7623 38C89.2329 38 91.2546 36.5385 91.2546 33.0533V24.5088H89.2329V25.2958ZM86.7623 31.929C85.3026 31.929 84.0673 30.6923 84.0673 29.0059C84.0673 27.3195 85.3026 26.0829 86.7623 26.0829C88.2227 26.0829 89.3454 27.3195 89.3454 29.0059C89.3454 30.6923 88.2227 31.929 86.7623 31.929ZM114.162 19.4497H109.109V33.5029H111.243V28.2189H114.162C116.52 28.2189 118.766 26.5326 118.766 23.8343C118.766 21.1361 116.52 19.4497 114.162 19.4497ZM114.275 26.1953H111.243V21.3609H114.275C115.846 21.3609 116.745 22.7101 116.745 23.7219C116.633 24.9586 115.734 26.1953 114.275 26.1953ZM127.188 24.1716C125.616 24.1716 124.044 24.8461 123.482 26.3077L125.392 27.0947C125.84 26.3077 126.514 26.0829 127.301 26.0829C128.423 26.0829 129.434 26.7574 129.546 27.8816V27.9941C129.209 27.7692 128.311 27.4319 127.413 27.4319C125.392 27.4319 123.37 28.5562 123.37 30.5799C123.37 32.4911 125.055 33.7278 126.851 33.7278C128.311 33.7278 128.985 33.0533 129.546 32.3787H129.659V33.5029H131.68V28.1065C131.455 25.6331 129.546 24.1716 127.188 24.1716ZM126.964 31.929C126.29 31.929 125.279 31.5917 125.279 30.6923C125.279 29.5681 126.514 29.2308 127.525 29.2308C128.423 29.2308 128.872 29.4556 129.434 29.6805C129.209 31.0296 128.087 31.929 126.964 31.929ZM138.755 24.5088L136.397 30.5799H136.284L133.813 24.5088H131.568L135.273 33.0533L133.14 37.7751H135.273L141 24.5088H138.755ZM119.889 33.5029H122.023V19.4497H119.889V33.5029Z" fill="white"/>
<path d="M11.4615 8C11.1154 8.34801 11 8.92797 11 9.62399V35.26C11 35.956 11.2307 36.536 11.5769 36.884L11.6923 37L26 22.616V22.384L11.4615 8Z" fill="url(#paint0_linear_2510_485)"/>
<path d="M30.4433 27L26 22.6588V22.3412L30.4433 18L30.5517 18.1059L35.8621 21.0706C37.3793 21.9177 37.3793 23.2941 35.8621 24.1412L30.4433 27Z" fill="url(#paint1_linear_2510_485)"/>
<path d="M30 26.888L25.4731 22L12 36.5478C12.5389 37.1297 13.2934 37.1297 14.2635 36.6642L30 26.888Z" fill="url(#paint2_linear_2510_485)"/>
<path d="M30 17.4165L14.2635 8.35875C13.2934 7.81307 12.5389 7.92224 12 8.46786L25.4731 22L30 17.4165Z" fill="url(#paint3_linear_2510_485)"/>
<path opacity="0.2" d="M30 27L14.2771 36.3837C13.4096 36.9559 12.6506 36.8414 12.1084 36.3837L12 36.4981L12.1084 36.6126C12.6506 37.0703 13.4096 37.1848 14.2771 36.6126L30 27Z" fill="black"/>
<path opacity="0.12" d="M11.4522 35.887C11.113 35.5483 11 34.9839 11 34.3064V34.4193C11 35.0967 11.226 35.6613 11.5652 36V35.887H11.4522ZM35.8696 23.4678L30.2174 26.629L30.3304 26.7419L35.8696 23.5806C36.6609 23.129 37 22.5645 37 22C37 22.5645 36.5478 23.0161 35.8696 23.4678Z" fill="black"/>
<path opacity="0.25" d="M13.8261 8.52848L35.8696 21.4828C36.5478 21.9496 37 22.4164 37 23C37 22.4164 36.6609 21.8329 35.8696 21.3661L13.8261 8.41173C12.2435 7.47811 11 8.17836 11 10.0457V10.1624C11 8.41173 12.2435 7.59479 13.8261 8.52848Z" fill="white"/>
<defs>
<linearGradient id="paint0_linear_2510_485" x1="24.6154" y1="9.40359" x2="5.14738" y2="28.7672" gradientUnits="userSpaceOnUse">
<stop stop-color="#00A0FF"/>
<stop offset="0.007" stop-color="#00A1FF"/>
<stop offset="0.26" stop-color="#00BEFF"/>
<stop offset="0.512" stop-color="#00D2FF"/>
<stop offset="0.76" stop-color="#00DFFF"/>
<stop offset="1" stop-color="#00E3FF"/>
</linearGradient>
<linearGradient id="paint1_linear_2510_485" x1="37.8497" y1="22.4481" x2="11.6263" y2="22.4481" gradientUnits="userSpaceOnUse">
<stop stop-color="#FFE000"/>
<stop offset="0.409" stop-color="#FFBD00"/>
<stop offset="0.775" stop-color="#FFA500"/>
<stop offset="1" stop-color="#FF9C00"/>
</linearGradient>
<linearGradient id="paint2_linear_2510_485" x1="27.55" y1="24.6721" x2="1.14153" y2="49.1297" gradientUnits="userSpaceOnUse">
<stop stop-color="#FF3A44"/>
<stop offset="1" stop-color="#C31162"/>
</linearGradient>
<linearGradient id="paint3_linear_2510_485" x1="8.65545" y1="0.36605" x2="19.7454" y2="11.3194" gradientUnits="userSpaceOnUse">
<stop stop-color="#32A071"/>
<stop offset="0.069" stop-color="#2DA771"/>
<stop offset="0.476" stop-color="#15CF74"/>
<stop offset="0.801" stop-color="#06E775"/>
<stop offset="1" stop-color="#00F076"/>
</linearGradient>
</defs>
</svg>
