<svg width="200" height="44" viewBox="0 0 200 44" fill="none" xmlns="http://www.w3.org/2000/svg">
<g id="Vector">
<path d="M25.2165 11.8249V34.9539H20.5775V19.9101L14.381 34.9539H10.8686L4.63904 19.9101V34.9539H0V11.8249H5.26863L12.6248 29.0225L19.981 11.8249H25.2165Z" fill="white"/>
<path d="M26.6219 25.7089C26.6219 23.8533 26.9864 22.2075 27.7154 20.7716C28.4665 19.3358 29.4716 18.2312 30.7308 17.458C32.0121 16.6849 33.4369 16.2983 35.0054 16.2983C36.375 16.2983 37.5679 16.5744 38.584 17.1267C39.6223 17.6789 40.4507 18.3748 41.0693 19.2143V16.5965H45.7414V34.9539H41.0693V32.2698C40.4728 33.1314 39.6444 33.8493 38.584 34.4237C37.5458 34.976 36.3418 35.2521 34.9722 35.2521C33.4259 35.2521 32.0121 34.8545 30.7308 34.0592C29.4716 33.2639 28.4665 32.1483 27.7154 30.7125C26.9864 29.2545 26.6219 27.5866 26.6219 25.7089ZM41.0693 25.7752C41.0693 24.6486 40.8483 23.6876 40.4065 22.8924C39.9647 22.075 39.3683 21.4565 38.6172 21.0367C37.8661 20.5949 37.0598 20.374 36.1983 20.374C35.3367 20.374 34.5415 20.5839 33.8125 21.0036C33.0835 21.4233 32.487 22.0419 32.0231 22.8592C31.5813 23.6545 31.3604 24.6044 31.3604 25.7089C31.3604 26.8134 31.5813 27.7854 32.0231 28.6249C32.487 29.4422 33.0835 30.0718 33.8125 30.5136C34.5635 30.9555 35.3588 31.1764 36.1983 31.1764C37.0598 31.1764 37.8661 30.9665 38.6172 30.5468C39.3683 30.105 39.9647 29.4864 40.4065 28.6912C40.8483 27.8738 41.0693 26.9018 41.0693 25.7752Z" fill="white"/>
<path d="M55.4746 16.2983C56.8442 16.2983 58.0482 16.5744 59.0864 17.1267C60.1247 17.6569 60.9421 18.3527 61.5385 19.2143V16.5965H66.2107V35.0864C66.2107 36.7874 65.8683 38.3006 65.1835 39.626C64.4987 40.9736 63.4714 42.0339 62.1018 42.8071C60.7322 43.6024 59.0754 44 57.1314 44C54.5247 44 52.3819 43.3925 50.703 42.1775C49.0462 40.9625 48.1074 39.3057 47.8865 37.2071H52.4924C52.7354 38.0466 53.2545 38.7093 54.0498 39.1953C54.8671 39.7034 55.8502 39.9574 56.9989 39.9574C58.3464 39.9574 59.4399 39.5487 60.2793 38.7314C61.1188 37.9361 61.5385 36.7211 61.5385 35.0864V32.2367C60.9421 33.0982 60.1137 33.8162 59.0533 34.3906C58.015 34.9649 56.8221 35.2521 55.4746 35.2521C53.9283 35.2521 52.5145 34.8545 51.2332 34.0592C49.9519 33.2639 48.9358 32.1483 48.1847 30.7125C47.4557 29.2545 47.0912 27.5866 47.0912 25.7089C47.0912 23.8533 47.4557 22.2075 48.1847 20.7716C48.9358 19.3358 49.9409 18.2312 51.2001 17.458C52.4813 16.6849 53.9062 16.2983 55.4746 16.2983ZM61.5385 25.7752C61.5385 24.6486 61.3176 23.6876 60.8758 22.8924C60.434 22.075 59.8375 21.4565 59.0864 21.0367C58.3354 20.5949 57.5291 20.374 56.6675 20.374C55.806 20.374 55.0107 20.5839 54.2817 21.0036C53.5527 21.4233 52.9563 22.0419 52.4924 22.8592C52.0506 23.6545 51.8297 24.6044 51.8297 25.7089C51.8297 26.8134 52.0506 27.7854 52.4924 28.6249C52.9563 29.4422 53.5527 30.0718 54.2817 30.5136C55.0328 30.9555 55.8281 31.1764 56.6675 31.1764C57.5291 31.1764 58.3354 30.9665 59.0864 30.5468C59.8375 30.105 60.434 29.4864 60.8758 28.6912C61.3176 27.8738 61.5385 26.9018 61.5385 25.7752Z" fill="white"/>
<path d="M73.3924 16.5965V34.9539H68.7534V16.5965H73.3924Z" fill="white"/>
<path d="M74.7947 25.7752C74.7947 23.8754 75.1813 22.2186 75.9545 20.8048C76.7277 19.3689 77.7991 18.2644 79.1687 17.4912C80.5383 16.6959 82.1067 16.2983 83.874 16.2983C86.1493 16.2983 88.027 16.8726 89.5071 18.0214C91.0093 19.148 92.0144 20.7385 92.5225 22.7929H87.519C87.2539 21.9977 86.801 21.3791 86.1604 20.9373C85.5418 20.4734 84.7687 20.2415 83.8409 20.2415C82.5154 20.2415 81.4661 20.7275 80.6929 21.6995C79.9198 22.6494 79.5332 24.0079 79.5332 25.7752C79.5332 27.5203 79.9198 28.8789 80.6929 29.8509C81.4661 30.8008 82.5154 31.2758 83.8409 31.2758C85.7186 31.2758 86.9446 30.4363 87.519 28.7574H92.5225C92.0144 30.7456 91.0093 32.3251 89.5071 33.4959C88.005 34.6667 86.1273 35.2521 83.874 35.2521C82.1067 35.2521 80.5383 34.8655 79.1687 34.0923C77.7991 33.2971 76.7277 32.1925 75.9545 30.7787C75.1813 29.3428 74.7947 27.675 74.7947 25.7752Z" fill="white"/>
<path d="M114.023 30.5468H104.811L103.287 34.9539H98.4155L106.733 11.7918H112.134L120.451 34.9539H115.547L114.023 30.5468ZM112.763 26.8355L109.417 17.1598L106.07 26.8355H112.763Z" fill="white"/>
<path d="M126.211 10.4332V34.9539H121.572V10.4332H126.211Z" fill="white"/>
<path d="M133.445 19.2805C134.041 18.3969 134.859 17.6789 135.897 17.1267C136.957 16.5744 138.161 16.2983 139.509 16.2983C141.077 16.2983 142.491 16.6849 143.75 17.458C145.032 18.2312 146.037 19.3358 146.766 20.7716C147.517 22.1854 147.892 23.8312 147.892 25.7089C147.892 27.5866 147.517 29.2545 146.766 30.7125C146.037 32.1483 145.032 33.2639 143.75 34.0592C142.491 34.8545 141.077 35.2521 139.509 35.2521C138.139 35.2521 136.935 34.987 135.897 34.4568C134.881 33.9046 134.064 33.1977 133.445 32.3361V34.9539H128.806V10.4332H133.445V19.2805ZM143.154 25.7089C143.154 24.6044 142.922 23.6545 142.458 22.8592C142.016 22.0419 141.42 21.4233 140.669 21.0036C139.94 20.5839 139.144 20.374 138.283 20.374C137.443 20.374 136.648 20.5949 135.897 21.0367C135.168 21.4565 134.572 22.075 134.108 22.8924C133.666 23.7097 133.445 24.6707 133.445 25.7752C133.445 26.8797 133.666 27.8407 134.108 28.658C134.572 29.4754 135.168 30.105 135.897 30.5468C136.648 30.9665 137.443 31.1764 138.283 31.1764C139.144 31.1764 139.94 30.9555 140.669 30.5136C141.42 30.0718 142.016 29.4422 142.458 28.6249C142.922 27.8075 143.154 26.8355 143.154 25.7089Z" fill="white"/>
<path d="M166.605 16.5965V34.9539H161.933V32.6343C161.337 33.4296 160.552 34.0592 159.58 34.5231C158.631 34.9649 157.592 35.1858 156.466 35.1858C155.03 35.1858 153.76 34.8876 152.655 34.2911C151.551 33.6726 150.678 32.7779 150.037 31.6071C149.419 30.4142 149.11 29.0004 149.11 27.3657V16.5965H153.749V26.703C153.749 28.161 154.113 29.2876 154.842 30.0829C155.571 30.856 156.565 31.2426 157.824 31.2426C159.106 31.2426 160.111 30.856 160.84 30.0829C161.569 29.2876 161.933 28.161 161.933 26.703V16.5965H166.605Z" fill="white"/>
<path d="M191.992 16.3314C194.245 16.3314 196.057 17.0273 197.426 18.419C198.818 19.7886 199.514 21.7105 199.514 24.1847V25.543H194.871L194.875 24.8142C194.875 23.3783 194.51 22.2849 193.781 21.5338C193.052 20.7606 192.058 20.374 190.799 20.374C189.54 20.374 188.535 20.7606 187.784 21.5338C187.055 22.2849 186.69 23.3783 186.69 24.8142V34.9539H182.051V24.8142C182.051 23.3783 181.687 22.2849 180.958 21.5338C180.229 20.7606 179.235 20.374 177.975 20.374C176.694 20.374 175.678 20.7606 174.927 21.5338C174.198 22.2849 173.833 23.3783 173.833 24.8142V34.9539H169.194V16.5965H173.833V18.8166C174.43 18.0434 175.192 17.436 176.12 16.9941C177.07 16.5523 178.108 16.3314 179.235 16.3314C180.67 16.3314 181.952 16.6407 183.078 17.2592C184.205 17.8557 185.078 18.7172 185.696 19.8438C186.293 18.7835 187.154 17.933 188.281 17.2924C189.429 16.6517 190.666 16.3314 191.992 16.3314Z" fill="white"/>
<path d="M194.871 26.923H199.514V34.8625L197.263 33.6544L194.875 34.8625L194.871 26.923Z" fill="white"/>
<path d="M69.9804 9.50715L70.953 7.12444C71.0361 6.92088 71.3252 6.92343 71.4047 7.12842L72.3251 9.50222C72.3495 9.56509 72.3989 9.615 72.4615 9.64004L74.9298 10.6274C75.1299 10.7074 75.1346 10.9888 74.9374 11.0756L72.4548 12.168C72.3962 12.1937 72.3502 12.2415 72.3266 12.301L71.4041 14.6316C71.3238 14.8345 71.0376 14.837 70.9537 14.6356L69.9788 12.296C69.9553 12.2395 69.9113 12.194 69.8557 12.1685L67.4677 11.074C67.2749 10.9856 67.2798 10.7102 67.4755 10.6286L69.8489 9.63968C69.9086 9.61478 69.956 9.56708 69.9804 9.50715Z" fill="white"/>
<path d="M41.7652 0.000355648C52.4684 0.0623252 68.343 6.21368 68.343 6.21368L64.3736 9.1476L64.8914 11.3912C64.8914 11.3912 51.1178 5.49391 41.7652 4.31526C29.3845 2.755 12.426 11.9096 12.426 11.9096C12.426 11.9096 28.7173 -0.0751893 41.7652 0.000355648Z" fill="white"/>
</g>
</svg>
