<svg width="188" height="50" viewBox="0 0 188 50" fill="none" xmlns="http://www.w3.org/2000/svg">
<g filter="url(#filter0_ii_2340_256)">
<rect width="187.5" height="50" rx="25" fill="black"/>
</g>
<path d="M45.5719 23.3435C45.5342 19.2233 49.0079 17.2188 49.1668 17.1255C47.1994 14.3093 44.1501 13.9245 43.0785 13.8938C40.5175 13.6292 38.0332 15.3985 36.7286 15.3985C35.3979 15.3985 33.3889 13.9194 31.2237 13.9628C28.4373 14.005 25.8307 15.5889 24.4011 18.0485C21.4507 23.0634 23.6511 30.4332 26.4778 34.4868C27.8918 36.4734 29.5441 38.6888 31.7067 38.6108C33.8225 38.5264 34.6128 37.2877 37.1661 37.2877C39.6959 37.2877 40.4381 38.6108 42.6437 38.5609C44.9144 38.5264 46.344 36.5667 47.7086 34.5636C49.3426 32.2893 49.9988 30.0471 50.0248 29.9321C49.9727 29.9142 45.6162 28.2804 45.5719 23.3435ZM41.4055 11.2271C42.5434 9.82997 43.3221 7.92898 43.1059 6C41.4589 6.07157 39.399 7.11854 38.2129 8.48513C37.1635 9.68935 36.2261 11.6631 36.4682 13.5192C38.3184 13.6547 40.218 12.6027 41.4055 11.2271Z" fill="white"/>
<path d="M76.2181 38.3228H73.2612L71.6414 33.3257H66.0115L64.4686 38.3228H61.5898L67.169 21.3105H70.6141L76.2181 38.3228ZM71.1532 31.2292L69.6884 26.7869C69.5335 26.3331 69.2418 25.2644 68.8148 23.5821H68.7627C68.5908 24.3056 68.3161 25.3744 67.9398 26.7869L66.4997 31.2292H71.1532ZM90.5377 32.0384C90.5377 34.1247 89.9609 35.7737 88.8057 36.9843C87.7719 38.062 86.487 38.6002 84.9549 38.6002C83.3 38.6002 82.1097 38.0211 81.3871 36.8604V43.2968H78.6112V30.0876C78.6112 28.7773 78.576 27.4337 78.5083 26.0557H80.9496L81.1045 28.0001H81.1566C82.0824 26.5351 83.487 25.8025 85.3723 25.8025C86.8464 25.8025 88.0771 26.374 89.0613 27.5181C90.0441 28.6648 90.5377 30.1707 90.5377 32.0384ZM87.7093 32.1381C87.7093 30.9441 87.4362 29.9598 86.8868 29.1838C86.2864 28.3772 85.4806 27.9732 84.4704 27.9732C83.7853 27.9732 83.1627 28.1982 82.6071 28.6418C82.0498 29.0892 81.6852 29.6734 81.5146 30.3969C81.4385 30.6676 81.3952 30.9461 81.3858 31.2266V33.2733C81.3858 34.1643 81.6644 34.9173 82.2217 35.5334C82.7789 36.147 83.503 36.4551 84.3934 36.4551C85.4387 36.4551 86.2528 36.0575 86.8349 35.2688C87.4179 34.4775 87.7093 33.4343 87.7093 32.1381ZM104.908 32.0384C104.908 34.1247 104.331 35.7737 103.177 36.9843C102.141 38.062 100.857 38.6002 99.3235 38.6002C97.6686 38.6002 96.4791 38.0211 95.7558 36.8604V43.2968H92.98V30.0876C92.98 28.7773 92.9449 27.4337 92.877 26.0557H95.3186L95.4735 28.0001H95.5254C96.4501 26.5351 97.8548 25.8025 99.7416 25.8025C101.214 25.8025 102.445 26.374 103.431 27.5181C104.413 28.6648 104.908 30.1707 104.908 32.0384ZM102.079 32.1381C102.079 30.9441 101.804 29.9598 101.255 29.1838C100.654 28.3772 99.8507 27.9732 98.8405 27.9732C98.1561 27.9732 97.5335 28.1982 96.975 28.6418C96.4173 29.0892 96.0541 29.6734 95.884 30.3969C95.7993 30.7345 95.7535 31.0093 95.7535 31.2266V33.2733C95.7535 34.1643 96.0335 34.9173 96.5882 35.5334C97.1452 36.1457 97.8693 36.4551 98.7627 36.4551C99.8095 36.4551 100.623 36.0575 101.204 35.2688C101.787 34.4775 102.079 33.4343 102.079 32.1381ZM120.975 33.5507C120.975 34.9991 120.459 36.1764 119.434 37.0853C118.307 38.0773 116.733 38.5746 114.714 38.5746C112.851 38.5746 111.356 38.2218 110.228 37.5148L110.87 35.2432C112.088 35.9514 113.424 36.3042 114.88 36.3042C115.927 36.3042 116.741 36.0716 117.322 35.6101C117.904 35.1474 118.198 34.5286 118.198 33.7565C118.198 33.0649 117.954 32.4858 117.477 32.0141C116.996 31.5436 116.202 31.1051 115.086 30.7025C112.052 29.5916 110.534 27.9668 110.534 25.8294C110.534 24.4334 111.07 23.2906 112.141 22.397C113.211 21.5047 114.631 21.0586 116.396 21.0586C117.972 21.0586 119.286 21.3283 120.329 21.8665L119.633 24.0883C118.651 23.5668 117.543 23.306 116.303 23.306C115.324 23.306 114.556 23.5424 114.006 24.0129C113.544 24.4334 113.31 24.9461 113.31 25.5546C113.31 26.2257 113.577 26.7831 114.108 27.2202C114.569 27.623 115.41 28.0614 116.627 28.5318C118.118 29.1225 119.215 29.8102 119.917 30.6002C120.623 31.3903 120.975 32.3759 120.975 33.5507ZM130.176 28.101H127.117V34.0569C127.117 35.5717 127.656 36.3273 128.737 36.3273C129.233 36.3273 129.644 36.2864 129.97 36.2007L130.046 38.2704C129.5 38.471 128.779 38.572 127.887 38.572C126.791 38.572 125.934 38.2435 125.316 37.5864C124.7 36.9293 124.39 35.8287 124.39 34.2793V28.0959H122.567V26.0506H124.39V23.8045L127.117 22.9966V26.0506H130.176V28.101ZM143.954 32.0883C143.954 33.9738 143.405 35.5219 142.309 36.7325C141.161 37.9789 139.635 38.6002 137.733 38.6002C135.897 38.6002 134.438 38.0032 133.35 36.8105C132.261 35.6152 131.717 34.1093 131.717 32.2927C131.717 30.3918 132.279 28.8348 133.4 27.6242C134.524 26.4123 136.037 25.8064 137.939 25.8064C139.773 25.8064 141.245 26.4047 142.359 27.5987C143.424 28.7568 143.954 30.2525 143.954 32.0883ZM141.077 32.1509C141.077 31.0272 140.829 30.0633 140.333 29.2567C139.751 28.2826 138.918 27.7955 137.839 27.7955C136.727 27.7955 135.874 28.2826 135.293 29.2567C134.796 30.0633 134.548 31.0438 134.548 32.202C134.548 33.327 134.796 34.2934 135.293 35.0975C135.893 36.0716 136.73 36.5587 137.815 36.5587C138.877 36.5587 139.708 36.0614 140.31 35.0732C140.82 34.2474 141.077 33.2771 141.077 32.1509ZM152.981 28.4526C152.692 28.4014 152.4 28.3762 152.106 28.3772C151.13 28.3772 150.374 28.7377 149.843 29.4638C149.382 30.103 149.15 30.9109 149.15 31.8863V38.3228H146.375V29.9189C146.377 28.6312 146.35 27.3435 146.294 26.057H148.712L148.813 28.404H148.89C149.185 27.5974 149.646 26.9467 150.278 26.4596C150.857 26.034 151.561 25.8036 152.285 25.8025C152.541 25.8025 152.773 25.8205 152.978 25.8524L152.981 28.4526ZM165.396 31.6089C165.403 32.0232 165.369 32.4372 165.294 32.845H156.966C156.998 34.0569 157.401 34.985 158.175 35.6242C158.877 36.1943 159.784 36.4807 160.899 36.4807C162.132 36.4807 163.256 36.2889 164.268 35.9016L164.703 37.7923C163.521 38.2985 162.125 38.5503 160.515 38.5503C158.577 38.5503 157.056 37.9904 155.95 36.8731C154.846 35.7546 154.292 34.2512 154.292 32.3682C154.292 30.5197 154.806 28.9793 155.836 27.7508C156.915 26.4392 158.372 25.7834 160.205 25.7834C162.005 25.7834 163.369 26.4392 164.294 27.7508C165.027 28.7901 165.396 30.0787 165.396 31.6089ZM162.749 30.9019C162.768 30.0927 162.587 29.3961 162.21 28.8067C161.73 28.0473 160.99 27.669 159.999 27.669C159.091 27.669 158.352 28.0384 157.79 28.7799C157.327 29.3692 157.053 30.0774 156.968 30.8994L162.749 30.9019Z" fill="white"/>
<path d="M65.2108 15.299C64.4387 15.299 63.7708 15.2619 63.2148 15.1992V6.97431C63.9924 6.85635 64.7782 6.79821 65.565 6.80042C68.7484 6.80042 70.2145 8.3383 70.2145 10.8452C70.2145 13.7367 68.4828 15.299 65.2108 15.299ZM65.677 7.85502C65.2473 7.85502 64.8814 7.88066 64.5781 7.942V14.1945C64.7421 14.22 65.0572 14.2315 65.4999 14.2315C67.5858 14.2315 68.7732 13.0656 68.7732 10.8822C68.7732 8.93526 67.699 7.85502 65.677 7.85502ZM74.7833 15.3616C72.9891 15.3616 71.8264 14.0461 71.8264 12.2603C71.8264 10.399 73.0139 9.07206 74.8849 9.07206C76.653 9.07206 77.8418 10.3248 77.8418 12.1619C77.8418 14.0461 76.6166 15.3616 74.7833 15.3616ZM74.8354 10.0513C73.8497 10.0513 73.2183 10.9563 73.2183 12.2219C73.2183 13.4632 73.8628 14.3683 74.8224 14.3683C75.7819 14.3683 76.4264 13.4006 76.4264 12.1963C76.4264 10.9692 75.795 10.0513 74.8354 10.0513ZM88.0733 9.19605L86.1529 15.2248H84.9016L84.1058 12.6067C83.9082 11.9663 83.7434 11.3165 83.6122 10.6598H83.5862C83.4863 11.3168 83.2963 11.9752 83.0941 12.6067L82.2478 15.2248H80.9835L79.1763 9.19605H80.5786L81.2739 12.0621C81.438 12.7448 81.576 13.389 81.6905 13.9975H81.7166C81.8169 13.4901 81.9809 12.856 82.2218 12.0749L83.0941 9.19735H84.2058L85.0405 12.0135C85.2427 12.6962 85.4067 13.3661 85.5341 13.9988H85.5707C85.6593 13.3788 85.7981 12.7205 85.9873 12.0135L86.7335 9.19735L88.0733 9.19605ZM95.1432 15.2248H93.7782V11.763C93.7782 10.6968 93.3616 10.1625 92.5399 10.1625C91.7319 10.1625 91.1756 10.8452 91.1756 11.639V15.2248H89.8114V10.9193C89.8114 10.3862 89.7985 9.81476 89.7603 9.19475H90.9613L91.0246 10.1254H91.0627C91.4297 9.4811 92.1744 9.07206 93.0091 9.07206C94.2978 9.07206 95.1439 10.0398 95.1439 11.6147L95.1432 15.2248ZM98.9055 15.2248H97.5397V6.42969H98.9055V15.2248ZM103.881 15.3616C102.088 15.3616 100.924 14.0461 100.924 12.2603C100.924 10.399 102.112 9.07206 103.981 9.07206C105.75 9.07206 106.938 10.3248 106.938 12.1619C106.939 14.0461 105.713 15.3616 103.881 15.3616ZM103.931 10.0513C102.946 10.0513 102.314 10.9563 102.314 12.2219C102.314 13.4632 102.96 14.3683 103.918 14.3683C104.878 14.3683 105.521 13.4006 105.521 12.1963C105.523 10.9692 104.893 10.0513 103.931 10.0513ZM112.318 15.2248L112.219 14.5306H112.182C111.766 15.0893 111.158 15.3616 110.387 15.3616C109.287 15.3616 108.505 14.6048 108.505 13.5872C108.505 12.0992 109.819 11.3296 112.094 11.3296V11.2184C112.094 10.4245 111.666 10.027 110.82 10.027C110.214 10.027 109.683 10.1766 109.215 10.4744L108.938 9.59364C109.506 9.24587 110.214 9.07206 111.046 9.07206C112.65 9.07206 113.459 9.90296 113.459 11.5661V13.7866C113.459 14.3951 113.487 14.8669 113.548 15.2261L112.318 15.2248ZM112.13 12.2219C110.615 12.2219 109.854 12.5824 109.854 13.4376C109.854 14.0704 110.247 14.3798 110.791 14.3798C111.485 14.3798 112.13 13.8595 112.13 13.1526V12.2219ZM120.086 15.2248L120.022 14.2571H119.985C119.592 14.9883 118.933 15.3616 118.013 15.3616C116.533 15.3616 115.436 14.0832 115.436 12.2845C115.436 10.399 116.573 9.07077 118.125 9.07077C118.947 9.07077 119.528 9.34308 119.856 9.89022H119.884V6.42969H121.25V13.6C121.25 14.1829 121.264 14.7288 121.301 15.2248H120.086ZM119.884 11.6774C119.884 10.8336 119.315 10.1139 118.446 10.1139C117.435 10.1139 116.817 10.9947 116.817 12.2347C116.817 13.4504 117.458 14.2827 118.419 14.2827C119.277 14.2827 119.884 13.5501 119.884 12.6821V11.6774ZM129.909 15.3616C128.116 15.3616 126.954 14.0461 126.954 12.2603C126.954 10.399 128.142 9.07206 130.011 9.07206C131.78 9.07206 132.968 10.3248 132.968 12.1619C132.969 14.0461 131.744 15.3616 129.909 15.3616ZM129.961 10.0513C128.976 10.0513 128.345 10.9563 128.345 12.2219C128.345 13.4632 128.989 14.3683 129.948 14.3683C130.908 14.3683 131.551 13.4006 131.551 12.1963C131.554 10.9692 130.923 10.0513 129.961 10.0513ZM140.306 15.2248H138.94V11.763C138.94 10.6968 138.524 10.1625 137.702 10.1625C136.894 10.1625 136.339 10.8452 136.339 11.639V15.2248H134.973V10.9193C134.973 10.3862 134.96 9.81476 134.922 9.19475H136.122L136.187 10.1254H136.224C136.59 9.4811 137.336 9.07077 138.17 9.07077C139.458 9.07077 140.306 10.0385 140.306 11.6134V15.2248ZM149.487 10.2008H147.985V13.1283C147.985 13.8735 148.249 14.2456 148.78 14.2456C149.021 14.2456 149.222 14.22 149.385 14.1829L149.423 15.2005C149.159 15.3002 148.804 15.3501 148.365 15.3501C147.289 15.3501 146.646 14.7672 146.646 13.2408V10.2008H145.75V9.19605H146.646V8.09155L147.985 7.69396V9.19475H149.487V10.2008ZM156.71 15.2248H155.347V11.7885C155.347 10.7097 154.932 10.1637 154.109 10.1637C153.402 10.1637 152.743 10.6355 152.743 11.5904V15.2248H151.38V6.42969H152.743V10.0513H152.77C153.2 9.3942 153.822 9.07077 154.617 9.07077C155.916 9.07077 156.71 10.0628 156.71 11.639V15.2248ZM164.111 12.5326H160.016C160.042 13.6741 160.812 14.3184 161.951 14.3184C162.556 14.3184 163.114 14.2187 163.606 14.0334L163.818 14.964C163.237 15.212 162.554 15.336 161.758 15.336C159.838 15.336 158.701 14.1446 158.701 12.2974C158.701 10.4489 159.865 9.05925 161.605 9.05925C163.173 9.05925 164.158 10.2008 164.158 11.9253C164.167 12.1288 164.151 12.3327 164.111 12.5326ZM162.86 11.5776C162.86 10.647 162.382 9.98994 161.509 9.98994C160.726 9.98994 160.106 10.6598 160.018 11.5776H162.86Z" fill="white"/>
<defs>
<filter id="filter0_ii_2340_256" x="0" y="0" width="192.5" height="55" filterUnits="userSpaceOnUse" color-interpolation-filters="sRGB">
<feFlood flood-opacity="0" result="BackgroundImageFix"/>
<feBlend mode="normal" in="SourceGraphic" in2="BackgroundImageFix" result="shape"/>
<feColorMatrix in="SourceAlpha" type="matrix" values="0 0 0 0 0 0 0 0 0 0 0 0 0 0 0 0 0 0 127 0" result="hardAlpha"/>
<feOffset dy="5"/>
<feGaussianBlur stdDeviation="2.5"/>
<feComposite in2="hardAlpha" operator="arithmetic" k2="-1" k3="1"/>
<feColorMatrix type="matrix" values="0 0 0 0 1 0 0 0 0 1 0 0 0 0 1 0 0 0 0.25 0"/>
<feBlend mode="normal" in2="shape" result="effect1_innerShadow_2340_256"/>
<feColorMatrix in="SourceAlpha" type="matrix" values="0 0 0 0 0 0 0 0 0 0 0 0 0 0 0 0 0 0 127 0" result="hardAlpha"/>
<feOffset dx="5"/>
<feGaussianBlur stdDeviation="2.5"/>
<feComposite in2="hardAlpha" operator="arithmetic" k2="-1" k3="1"/>
<feColorMatrix type="matrix" values="0 0 0 0 1 0 0 0 0 1 0 0 0 0 1 0 0 0 0.25 0"/>
<feBlend mode="normal" in2="effect1_innerShadow_2340_256" result="effect2_innerShadow_2340_256"/>
</filter>
</defs>
</svg>
