<svg width="143" height="38" viewBox="0 0 143 38" fill="none" xmlns="http://www.w3.org/2000/svg">
<path d="M22.5719 17.3435C22.5342 13.2233 26.0079 11.2188 26.1668 11.1255C24.1994 8.30931 21.1501 7.92454 20.0785 7.89379C17.5175 7.62918 15.0332 9.39848 13.7286 9.39848C12.3979 9.39848 10.3889 7.91942 8.22369 7.96284C5.43734 8.00503 2.83067 9.58892 1.40106 12.0485C-1.54925 17.0634 0.651125 24.4332 3.47784 28.4868C4.89181 30.4734 6.54406 32.6888 8.70674 32.6108C10.8225 32.5264 11.6128 31.2877 14.1661 31.2877C16.6959 31.2877 17.4381 32.6108 19.6437 32.5609C21.9144 32.5264 23.344 30.5667 24.7086 28.5636C26.3426 26.2893 26.9988 24.0471 27.0248 23.9321C26.9727 23.9142 22.6162 22.2804 22.5719 17.3435ZM18.4055 5.22715C19.5434 3.82997 20.3221 1.92898 20.1059 0C18.4589 0.0715682 16.399 1.11854 15.2129 2.48513C14.1635 3.68935 13.2261 5.66312 13.4682 7.51924C15.3184 7.65474 17.218 6.60266 18.4055 5.22715Z" fill="white"/>
<path d="M53.2181 32.3228H50.2612L48.6414 27.3257H43.0115L41.4686 32.3228H38.5898L44.169 15.3105H47.6141L53.2181 32.3228ZM48.1532 25.2292L46.6884 20.7869C46.5335 20.3331 46.2418 19.2644 45.8148 17.5821H45.7627C45.5908 18.3056 45.3161 19.3744 44.9398 20.7869L43.4997 25.2292H48.1532ZM67.5377 26.0384C67.5377 28.1247 66.9609 29.7737 65.8057 30.9843C64.7719 32.062 63.487 32.6002 61.9549 32.6002C60.3 32.6002 59.1097 32.0211 58.3871 30.8604V37.2968H55.6112V24.0876C55.6112 22.7773 55.576 21.4337 55.5083 20.0557H57.9496L58.1045 22.0001H58.1566C59.0824 20.5351 60.487 19.8025 62.3723 19.8025C63.8464 19.8025 65.0771 20.374 66.0613 21.5181C67.0441 22.6648 67.5377 24.1707 67.5377 26.0384ZM64.7093 26.1381C64.7093 24.9441 64.4362 23.9598 63.8868 23.1838C63.2864 22.3772 62.4806 21.9732 61.4704 21.9732C60.7853 21.9732 60.1627 22.1982 59.6071 22.6418C59.0498 23.0892 58.6852 23.6734 58.5146 24.3969C58.4385 24.6676 58.3952 24.9461 58.3858 25.2266V27.2733C58.3858 28.1643 58.6644 28.9173 59.2217 29.5334C59.7789 30.147 60.503 30.4551 61.3934 30.4551C62.4387 30.4551 63.2528 30.0575 63.8349 29.2688C64.4179 28.4775 64.7093 27.4343 64.7093 26.1381ZM81.9078 26.0384C81.9078 28.1247 81.331 29.7737 80.1766 30.9843C79.1412 32.062 77.8571 32.6002 76.3235 32.6002C74.6686 32.6002 73.4791 32.0211 72.7558 30.8604V37.2968H69.98V24.0876C69.98 22.7773 69.9449 21.4337 69.877 20.0557H72.3186L72.4735 22.0001H72.5254C73.4501 20.5351 74.8548 19.8025 76.7416 19.8025C78.2142 19.8025 79.4449 20.374 80.4314 21.5181C81.4134 22.6648 81.9078 24.1707 81.9078 26.0384ZM79.0787 26.1381C79.0787 24.9441 78.804 23.9598 78.2546 23.1838C77.6542 22.3772 76.8507 21.9732 75.8405 21.9732C75.1561 21.9732 74.5335 22.1982 73.975 22.6418C73.4173 23.0892 73.0541 23.6734 72.884 24.3969C72.7993 24.7345 72.7535 25.0093 72.7535 25.2266V27.2733C72.7535 28.1643 73.0335 28.9173 73.5882 29.5334C74.1452 30.1457 74.8693 30.4551 75.7627 30.4551C76.8095 30.4551 77.6229 30.0575 78.2035 29.2688C78.7872 28.4775 79.0787 27.4343 79.0787 26.1381ZM97.9748 27.5507C97.9748 28.9991 97.459 30.1764 96.4343 31.0853C95.3074 32.0773 93.7334 32.5746 91.7145 32.5746C89.8505 32.5746 88.3558 32.2218 87.2281 31.5148L87.8698 29.2432C89.0875 29.9514 90.4243 30.3042 91.8801 30.3042C92.9269 30.3042 93.741 30.0716 94.3216 29.6101C94.9038 29.1474 95.1975 28.5286 95.1975 27.7565C95.1975 27.0649 94.9541 26.4858 94.4765 26.0141C93.9958 25.5436 93.2016 25.1051 92.0861 24.7025C89.0524 23.5916 87.5341 21.9668 87.5341 19.8294C87.5341 18.4334 88.0705 17.2906 89.1409 16.397C90.2106 15.5047 91.6306 15.0586 93.3961 15.0586C94.9724 15.0586 96.2863 15.3283 97.3293 15.8665L96.6327 18.0883C95.6507 17.5668 94.5429 17.306 93.303 17.306C92.3241 17.306 91.5558 17.5424 91.0064 18.0129C90.5441 18.4334 90.3098 18.9461 90.3098 19.5546C90.3098 20.2257 90.5769 20.7831 91.1079 21.2202C91.5688 21.623 92.4103 22.0614 93.6265 22.5318C95.1182 23.1225 96.2146 23.8102 96.9165 24.6002C97.6231 25.3903 97.9748 26.3759 97.9748 27.5507ZM107.176 22.101H104.117V28.0569C104.117 29.5717 104.656 30.3273 105.737 30.3273C106.233 30.3273 106.644 30.2864 106.97 30.2007L107.046 32.2704C106.5 32.471 105.779 32.572 104.887 32.572C103.791 32.572 102.934 32.2435 102.316 31.5864C101.7 30.9293 101.39 29.8287 101.39 28.2793V22.0959H99.5672V20.0506H101.39V17.8045L104.117 16.9966V20.0506H107.176V22.101ZM120.954 26.0883C120.954 27.9738 120.405 29.5219 119.309 30.7325C118.161 31.9789 116.635 32.6002 114.733 32.6002C112.897 32.6002 111.438 32.0032 110.35 30.8105C109.261 29.6152 108.717 28.1093 108.717 26.2927C108.717 24.3918 109.279 22.8348 110.4 21.6242C111.524 20.4123 113.037 19.8064 114.939 19.8064C116.773 19.8064 118.245 20.4047 119.359 21.5987C120.424 22.7568 120.954 24.2525 120.954 26.0883ZM118.077 26.1509C118.077 25.0272 117.829 24.0633 117.333 23.2567C116.751 22.2826 115.918 21.7955 114.839 21.7955C113.727 21.7955 112.874 22.2826 112.293 23.2567C111.796 24.0633 111.548 25.0438 111.548 26.202C111.548 27.327 111.796 28.2934 112.293 29.0975C112.893 30.0716 113.73 30.5587 114.815 30.5587C115.877 30.5587 116.708 30.0614 117.31 29.0732C117.82 28.2474 118.077 27.2771 118.077 26.1509ZM129.981 22.4526C129.692 22.4014 129.4 22.3762 129.106 22.3772C128.13 22.3772 127.374 22.7377 126.843 23.4638C126.382 24.103 126.15 24.9109 126.15 25.8863V32.3228H123.375V23.9189C123.377 22.6312 123.35 21.3435 123.294 20.057H125.712L125.813 22.404H125.89C126.185 21.5974 126.646 20.9467 127.278 20.4596C127.857 20.034 128.561 19.8036 129.285 19.8025C129.541 19.8025 129.773 19.8205 129.978 19.8524L129.981 22.4526ZM142.396 25.6089C142.403 26.0232 142.369 26.4372 142.294 26.845H133.966C133.998 28.0569 134.401 28.985 135.175 29.6242C135.877 30.1943 136.784 30.4807 137.899 30.4807C139.132 30.4807 140.256 30.2889 141.268 29.9016L141.703 31.7923C140.521 32.2985 139.125 32.5503 137.515 32.5503C135.577 32.5503 134.056 31.9904 132.95 30.8731C131.846 29.7546 131.292 28.2512 131.292 26.3682C131.292 24.5197 131.806 22.9793 132.836 21.7508C133.915 20.4392 135.372 19.7834 137.205 19.7834C139.005 19.7834 140.369 20.4392 141.294 21.7508C142.027 22.7901 142.396 24.0787 142.396 25.6089ZM139.749 24.9019C139.768 24.0927 139.587 23.3961 139.21 22.8067C138.73 22.0473 137.99 21.669 136.999 21.669C136.091 21.669 135.352 22.0384 134.79 22.7799C134.327 23.3692 134.053 24.0774 133.968 24.8994L139.749 24.9019Z" fill="white"/>
<path d="M42.2108 9.29895C41.4387 9.29895 40.7708 9.26187 40.2148 9.19923V0.974308C40.9924 0.85635 41.7782 0.79821 42.565 0.800423C45.7484 0.800423 47.2145 2.3383 47.2145 4.84517C47.2145 7.73674 45.4828 9.29895 42.2108 9.29895ZM42.677 1.85502C42.2473 1.85502 41.8814 1.88066 41.5781 1.942V8.19446C41.7421 8.22002 42.0572 8.23146 42.4999 8.23146C44.5858 8.23146 45.7732 7.06562 45.7732 4.88218C45.7732 2.93526 44.699 1.85502 42.677 1.85502ZM51.7833 9.3616C49.9891 9.3616 48.8264 8.04613 48.8264 6.26028C48.8264 4.39898 50.0139 3.07206 51.8849 3.07206C53.653 3.07206 54.8418 4.32481 54.8418 6.16186C54.8418 8.04613 53.6166 9.3616 51.7833 9.3616ZM51.8354 4.05128C50.8497 4.05128 50.2183 4.95634 50.2183 6.2219C50.2183 7.46321 50.8628 8.36826 51.8224 8.36826C52.7819 8.36826 53.4264 7.40057 53.4264 6.19634C53.4264 4.96916 52.795 4.05128 51.8354 4.05128ZM65.0733 3.19605L63.1529 9.22479H61.9016L61.1058 6.60668C60.9082 5.9663 60.7434 5.31647 60.6122 4.65976H60.5862C60.4863 5.31685 60.2963 5.97523 60.0941 6.60668L59.2478 9.22479H57.9835L56.1763 3.19605H57.5786L58.2739 6.06213C58.438 6.74478 58.576 7.38905 58.6905 7.99753H58.7166C58.8169 7.49007 58.9809 6.85602 59.2218 6.07488L60.0941 3.19735H61.2058L62.0405 6.01353C62.2427 6.69618 62.4067 7.36608 62.5341 7.99882H62.5707C62.6593 7.37882 62.7981 6.72052 62.9873 6.01353L63.7335 3.19735L65.0733 3.19605ZM72.1432 9.22479H70.7782V5.76297C70.7782 4.69685 70.3616 4.16253 69.5399 4.16253C68.7319 4.16253 68.1756 4.84517 68.1756 5.63898V9.22479H66.8114V4.91926C66.8114 4.38623 66.7985 3.81476 66.7603 3.19475H67.9613L68.0246 4.12544H68.0627C68.4297 3.4811 69.1744 3.07206 70.0091 3.07206C71.2978 3.07206 72.1439 4.03976 72.1439 5.61472L72.1432 9.22479ZM75.9055 9.22479H74.5397V0.429688H75.9055V9.22479ZM80.8809 9.3616C79.0879 9.3616 77.9243 8.04613 77.9243 6.26028C77.9243 4.39898 79.1115 3.07206 80.9809 3.07206C82.7502 3.07206 83.9382 4.32481 83.9382 6.16186C83.939 8.04613 82.7128 9.3616 80.8809 9.3616ZM80.9313 4.05128C79.9463 4.05128 79.3145 4.95634 79.3145 6.2219C79.3145 7.46321 79.96 8.36826 80.9175 8.36826C81.8781 8.36826 82.5213 7.40057 82.5213 6.19634C82.5229 4.96916 81.8926 4.05128 80.9313 4.05128ZM89.318 9.22479L89.2188 8.53063H89.1822C88.7656 9.08929 88.1575 9.3616 87.3869 9.3616C86.2867 9.3616 85.5054 8.60479 85.5054 7.58719C85.5054 6.09922 86.8192 5.32959 89.0937 5.32959V5.21842C89.0937 4.42453 88.6657 4.02702 87.8195 4.02702C87.2137 4.02702 86.6827 4.17656 86.215 4.47443L85.938 3.59364C86.5057 3.24587 87.2137 3.07206 88.0461 3.07206C89.6499 3.07206 90.4594 3.90296 90.4594 5.56612V7.78664C90.4594 8.39512 90.4869 8.86688 90.548 9.22609L89.318 9.22479ZM89.1303 6.2219C87.615 6.2219 86.8543 6.58242 86.8543 7.43765C86.8543 8.07039 87.2465 8.37978 87.7905 8.37978C88.4848 8.37978 89.1303 7.8595 89.1303 7.1526V6.2219ZM97.086 9.22479L97.0219 8.2571H96.9845C96.5923 8.98827 95.9331 9.3616 95.013 9.3616C93.5328 9.3616 92.4364 8.08321 92.4364 6.28455C92.4364 4.39898 93.5732 3.07077 95.1251 3.07077C95.9469 3.07077 96.5283 3.34308 96.8563 3.89022H96.8838V0.429688H98.2496V7.60001C98.2496 8.18293 98.264 8.72877 98.3007 9.22479H97.086ZM96.8838 5.67736C96.8838 4.83365 96.3146 4.11392 95.4463 4.11392C94.4346 4.11392 93.8166 4.99472 93.8166 6.23472C93.8166 7.45039 94.4583 8.28266 95.4189 8.28266C96.2772 8.28266 96.8838 7.55011 96.8838 6.68214V5.67736ZM106.909 9.3616C105.116 9.3616 103.954 8.04613 103.954 6.26028C103.954 4.39898 105.142 3.07206 107.011 3.07206C108.78 3.07206 109.968 4.32481 109.968 6.16186C109.969 8.04613 108.744 9.3616 106.909 9.3616ZM106.961 4.05128C105.976 4.05128 105.345 4.95634 105.345 6.2219C105.345 7.46321 105.989 8.36826 106.948 8.36826C107.908 8.36826 108.551 7.40057 108.551 6.19634C108.554 4.96916 107.923 4.05128 106.961 4.05128ZM117.306 9.22479H115.94V5.76297C115.94 4.69685 115.524 4.16253 114.702 4.16253C113.894 4.16253 113.339 4.84517 113.339 5.63898V9.22479H111.973V4.91926C111.973 4.38623 111.96 3.81476 111.922 3.19475H113.122L113.187 4.12544H113.224C113.59 3.4811 114.336 3.07077 115.17 3.07077C116.458 3.07077 117.306 4.03846 117.306 5.61342V9.22479ZM126.487 4.20083H124.985V7.12826C124.985 7.87354 125.249 8.24557 125.78 8.24557C126.021 8.24557 126.222 8.22001 126.385 8.18293L126.423 9.20045C126.159 9.30018 125.804 9.35007 125.365 9.35007C124.289 9.35007 123.646 8.76715 123.646 7.2408V4.20083H122.75V3.19605H123.646V2.09155L124.985 1.69396V3.19475H126.487V4.20083ZM133.71 9.22479H132.347V5.78853C132.347 4.70966 131.932 4.16375 131.109 4.16375C130.402 4.16375 129.743 4.6355 129.743 5.59038V9.22479H128.38V0.429688H129.743V4.05128H129.77C130.2 3.3942 130.822 3.07077 131.617 3.07077C132.916 3.07077 133.71 4.0628 133.71 5.63898V9.22479ZM141.111 6.53259H137.016C137.042 7.6741 137.812 8.31844 138.951 8.31844C139.556 8.31844 140.114 8.21872 140.606 8.03339L140.818 8.964C140.237 9.21198 139.554 9.33596 138.758 9.33596C136.838 9.33596 135.701 8.14456 135.701 6.29736C135.701 4.44887 136.865 3.05925 138.605 3.05925C140.173 3.05925 141.158 4.20083 141.158 5.92533C141.167 6.12882 141.151 6.33269 141.111 6.53259ZM139.86 5.57764C139.86 4.64702 139.382 3.98994 138.509 3.98994C137.726 3.98994 137.106 4.65976 137.018 5.57764H139.86Z" fill="white"/>
</svg>
