<svg width="188" height="50" viewBox="0 0 188 50" fill="none" xmlns="http://www.w3.org/2000/svg">
<g filter="url(#filter0_ii_2340_255)">
<rect width="187.5" height="50" rx="25" fill="#C8EBFF"/>
</g>
<path d="M69.0608 12.0638C69.0608 13.0491 68.8145 13.9111 68.1987 14.5268C67.4598 15.2657 66.5978 15.6352 65.4895 15.6352C64.3811 15.6352 63.5191 15.2657 62.7802 14.5268C62.0413 13.788 61.6719 12.9259 61.6719 11.8176C61.6719 10.7092 62.0413 9.84719 62.7802 9.10828C63.5191 8.36938 64.3811 8 65.4895 8C65.982 8 66.4746 8.12313 66.9673 8.36938C67.4598 8.61571 67.8293 8.86203 68.0756 9.23148L67.4598 9.84719C66.9673 9.23148 66.3515 8.98516 65.4895 8.98516C64.7505 8.98516 64.0116 9.23148 63.5191 9.84719C62.9034 10.3398 62.657 11.0787 62.657 11.9407C62.657 12.8027 62.9034 13.5416 63.5191 14.0342C64.1348 14.5268 64.7505 14.8963 65.4895 14.8963C66.3515 14.8963 66.9673 14.65 67.583 14.0342C67.9524 13.6648 68.1987 13.1722 68.1987 12.5565H65.4895V11.5713H69.0608V12.0638ZM74.7255 8.98516H71.4006V11.325H74.4793V12.187H71.4006V14.5268H74.7255V15.512H70.4154V8.12313H74.7255V8.98516ZM78.7895 15.512H77.8043V8.98516H75.7108V8.12313H80.883V8.98516H78.7895V15.512ZM84.4542 15.512V8.12313H85.4393V15.512H84.4542ZM89.6268 15.512H88.6416V8.98516H86.5479V8.12313H91.5971V8.98516H89.5034V15.512H89.6268ZM101.325 14.5268C100.587 15.2657 99.7245 15.6352 98.6166 15.6352C97.508 15.6352 96.6456 15.2657 95.9072 14.5268C95.1682 13.788 94.7987 12.9259 94.7987 11.8176C94.7987 10.7092 95.1682 9.84719 95.9072 9.10828C96.6456 8.36938 97.508 8 98.6166 8C99.7245 8 100.587 8.36938 101.325 9.10828C102.064 9.84719 102.434 10.7092 102.434 11.8176C102.434 12.9259 102.064 13.788 101.325 14.5268ZM96.6463 13.9111C97.1385 14.4037 97.8776 14.7731 98.6166 14.7731C99.3549 14.7731 100.094 14.5268 100.587 13.9111C101.079 13.4185 101.449 12.6796 101.449 11.8176C101.449 10.9555 101.203 10.2166 100.587 9.72406C100.094 9.23148 99.3549 8.86203 98.6166 8.86203C97.8776 8.86203 97.1385 9.10828 96.6463 9.72406C96.1534 10.2166 95.7838 10.9555 95.7838 11.8176C95.7838 12.6796 96.0299 13.4185 96.6463 13.9111ZM103.789 15.512V8.12313H104.897L108.468 13.9111V8.12313H109.453V15.512H108.468L104.65 9.47774V15.512H103.789Z" fill="black" stroke="#585858" stroke-width="0.246296" stroke-miterlimit="10"/>
<path d="M94.5509 26.3466C91.5955 26.3466 89.2556 28.5632 89.2556 31.642C89.2556 34.5975 91.5955 36.9373 94.5509 36.9373C97.5064 36.9373 99.8462 34.7206 99.8462 31.642C99.8462 28.4401 97.5064 26.3466 94.5509 26.3466ZM94.5509 34.7206C92.9501 34.7206 91.5955 33.366 91.5955 31.5188C91.5955 29.6716 92.9501 28.317 94.5509 28.317C96.1517 28.317 97.5064 29.5484 97.5064 31.5188C97.5064 33.366 96.1517 34.7206 94.5509 34.7206ZM83.098 26.3466C80.1424 26.3466 77.8026 28.5632 77.8026 31.642C77.8026 34.5975 80.1424 36.9373 83.098 36.9373C86.0533 36.9373 88.3932 34.7206 88.3932 31.642C88.3932 28.4401 86.0533 26.3466 83.098 26.3466ZM83.098 34.7206C81.497 34.7206 80.1424 33.366 80.1424 31.5188C80.1424 29.6716 81.497 28.317 83.098 28.317C84.6986 28.317 86.0533 29.5484 86.0533 31.5188C86.0533 33.366 84.6986 34.7206 83.098 34.7206ZM69.4285 27.9475V30.1641H74.7239C74.6008 31.3956 74.1082 32.3808 73.4924 32.9966C72.7535 33.7355 71.522 34.5975 69.4285 34.5975C66.1035 34.5975 63.6406 32.0113 63.6406 28.6863C63.6406 25.3613 66.2267 22.7752 69.4285 22.7752C71.1526 22.7752 72.5073 23.5141 73.4924 24.3762L75.0934 22.7752C73.7388 21.5438 72.0147 20.5586 69.5517 20.5586C65.1184 20.5586 61.3008 24.253 61.3008 28.6863C61.3008 33.1197 65.1184 36.8141 69.5517 36.8141C72.0147 36.8141 73.7388 36.0752 75.2165 34.4743C76.6943 32.9966 77.1869 30.903 77.1869 29.3021C77.1869 28.8095 77.1869 28.317 77.0638 27.9475H69.4285ZM125.338 29.6716C124.845 28.4401 123.613 26.3466 120.905 26.3466C118.195 26.3466 115.978 28.4401 115.978 31.642C115.978 34.5975 118.195 36.9373 121.151 36.9373C123.491 36.9373 124.968 35.4595 125.461 34.5975L123.737 33.366C123.121 34.228 122.382 34.8438 121.151 34.8438C119.919 34.8438 119.181 34.3512 118.565 33.2428L125.584 30.2873L125.338 29.6716ZM118.195 31.3956C118.195 29.4252 119.796 28.317 120.905 28.317C121.767 28.317 122.628 28.8095 122.875 29.4252L118.195 31.3956ZM112.407 36.4447H114.747V21.0512H112.407V36.4447ZM108.713 27.4548C108.097 26.8391 107.112 26.2234 105.881 26.2234C103.294 26.2234 100.831 28.5632 100.831 31.5188C100.831 34.4743 103.171 36.691 105.881 36.691C107.112 36.691 108.097 36.0752 108.59 35.4595H108.713V36.1984C108.713 38.1688 107.605 39.2771 105.881 39.2771C104.526 39.2771 103.541 38.292 103.294 37.4298L101.324 38.292C101.94 39.6466 103.417 41.3706 106.003 41.3706C108.713 41.3706 110.93 39.7697 110.93 35.9521V26.5928H108.713V27.4548ZM106.003 34.7206C104.403 34.7206 103.048 33.366 103.048 31.5188C103.048 29.6716 104.403 28.317 106.003 28.317C107.605 28.317 108.836 29.6716 108.836 31.5188C108.836 33.366 107.605 34.7206 106.003 34.7206ZM136.052 21.0512H130.51V36.4447H132.85V30.6567H136.052C138.638 30.6567 141.101 28.8095 141.101 25.854C141.101 22.8984 138.638 21.0512 136.052 21.0512ZM136.175 28.4401H132.85V23.1447H136.175C137.899 23.1447 138.884 24.6225 138.884 25.7308C138.761 27.0855 137.776 28.4401 136.175 28.4401ZM150.337 26.2234C148.613 26.2234 146.888 26.9623 146.273 28.5632L148.367 29.4252C148.859 28.5632 149.598 28.317 150.46 28.317C151.692 28.317 152.8 29.0558 152.923 30.2873V30.4105C152.553 30.1641 151.568 29.7947 150.583 29.7947C148.367 29.7947 146.15 31.0262 146.15 33.2428C146.15 35.3363 147.997 36.691 149.967 36.691C151.568 36.691 152.307 35.9521 152.923 35.2132H153.046V36.4447H155.263V30.5336C155.017 27.8243 152.923 26.2234 150.337 26.2234ZM150.091 34.7206C149.352 34.7206 148.243 34.3512 148.243 33.366C148.243 32.1345 149.598 31.7651 150.706 31.7651C151.692 31.7651 152.184 32.0113 152.8 32.2577C152.553 33.7355 151.322 34.7206 150.091 34.7206ZM163.021 26.5928L160.435 33.2428H160.312L157.603 26.5928H155.14L159.203 35.9521L156.863 41.1243H159.203L165.484 26.5928H163.021ZM142.332 36.4447H144.672V21.0512H142.332V36.4447Z" fill="black"/>
<path d="M23.4926 8.7373C23.1231 9.10676 23 9.72246 23 10.4614V37.6771C23 38.416 23.2463 39.0318 23.6157 39.4011L23.7388 39.5243L39.0092 24.2539V24.0076L23.4926 8.7373Z" fill="url(#paint0_linear_2340_255)"/>
<path d="M43.9377 29.4246L38.8887 24.3755V24.0061L43.9377 18.957L44.0609 19.0802L50.0952 22.5283C51.8192 23.5135 51.8192 25.1145 50.0952 26.0996L43.9377 29.4246Z" fill="url(#paint1_linear_2340_255)"/>
<path d="M44.0579 29.305L38.8857 24.1328L23.4922 39.5263C24.1079 40.142 24.9699 40.142 26.0783 39.6495L44.0579 29.305Z" fill="url(#paint2_linear_2340_255)"/>
<path d="M44.0579 18.9581L26.0783 8.73686C24.9699 8.12109 24.1079 8.24428 23.4922 8.85999L38.8857 24.1304L44.0579 18.9581Z" fill="url(#paint3_linear_2340_255)"/>
<path opacity="0.2" d="M43.9348 29.1816L26.0783 39.2798C25.0931 39.8955 24.2311 39.7723 23.6153 39.2798L23.4922 39.4029L23.6153 39.5261C24.2311 40.0187 25.0931 40.1418 26.0783 39.5261L43.9348 29.1816Z" fill="black"/>
<path opacity="0.12" d="M23.4926 39.28C23.1231 38.9105 23 38.2948 23 37.5559V37.6791C23 38.418 23.2463 39.0337 23.6157 39.4032V39.28H23.4926ZM50.0926 25.7337L43.9352 29.1819L44.0583 29.305L50.0926 25.8569C50.9546 25.3643 51.3241 24.7485 51.3241 24.1328C51.3241 24.7485 50.8314 25.2411 50.0926 25.7337Z" fill="black"/>
<path opacity="0.25" d="M26.0787 8.86039L50.0926 22.5298C50.8314 23.0224 51.3241 23.515 51.3241 24.1308C51.3241 23.515 50.9546 22.8993 50.0926 22.4066L26.0787 8.73719C24.3546 7.75203 23 8.49094 23 10.4613V10.5845C23 8.73719 24.3546 7.87516 26.0787 8.86039Z" fill="white"/>
<defs>
<filter id="filter0_ii_2340_255" x="0" y="0" width="192.5" height="55" filterUnits="userSpaceOnUse" color-interpolation-filters="sRGB">
<feFlood flood-opacity="0" result="BackgroundImageFix"/>
<feBlend mode="normal" in="SourceGraphic" in2="BackgroundImageFix" result="shape"/>
<feColorMatrix in="SourceAlpha" type="matrix" values="0 0 0 0 0 0 0 0 0 0 0 0 0 0 0 0 0 0 127 0" result="hardAlpha"/>
<feOffset dy="5"/>
<feGaussianBlur stdDeviation="2.5"/>
<feComposite in2="hardAlpha" operator="arithmetic" k2="-1" k3="1"/>
<feColorMatrix type="matrix" values="0 0 0 0 1 0 0 0 0 1 0 0 0 0 1 0 0 0 0.25 0"/>
<feBlend mode="normal" in2="shape" result="effect1_innerShadow_2340_255"/>
<feColorMatrix in="SourceAlpha" type="matrix" values="0 0 0 0 0 0 0 0 0 0 0 0 0 0 0 0 0 0 127 0" result="hardAlpha"/>
<feOffset dx="5"/>
<feGaussianBlur stdDeviation="2.5"/>
<feComposite in2="hardAlpha" operator="arithmetic" k2="-1" k3="1"/>
<feColorMatrix type="matrix" values="0 0 0 0 1 0 0 0 0 1 0 0 0 0 1 0 0 0 0.25 0"/>
<feBlend mode="normal" in2="effect1_innerShadow_2340_255" result="effect2_innerShadow_2340_255"/>
</filter>
<linearGradient id="paint0_linear_2340_255" x1="37.5314" y1="10.2274" x2="16.8635" y2="30.8941" gradientUnits="userSpaceOnUse">
<stop stop-color="#00A0FF"/>
<stop offset="0.007" stop-color="#00A1FF"/>
<stop offset="0.26" stop-color="#00BEFF"/>
<stop offset="0.512" stop-color="#00D2FF"/>
<stop offset="0.76" stop-color="#00DFFF"/>
<stop offset="1" stop-color="#00E3FF"/>
</linearGradient>
<linearGradient id="paint1_linear_2340_255" x1="52.3537" y1="24.1305" x2="22.5555" y2="24.1305" gradientUnits="userSpaceOnUse">
<stop stop-color="#FFE000"/>
<stop offset="0.409" stop-color="#FFBD00"/>
<stop offset="0.775" stop-color="#FFA500"/>
<stop offset="1" stop-color="#FF9C00"/>
</linearGradient>
<linearGradient id="paint2_linear_2340_255" x1="41.2587" y1="26.9603" x2="13.2327" y2="54.9863" gradientUnits="userSpaceOnUse">
<stop stop-color="#FF3A44"/>
<stop offset="1" stop-color="#C31162"/>
</linearGradient>
<linearGradient id="paint3_linear_2340_255" x1="19.6709" y1="-0.282527" x2="32.1864" y2="12.2331" gradientUnits="userSpaceOnUse">
<stop stop-color="#32A071"/>
<stop offset="0.069" stop-color="#2DA771"/>
<stop offset="0.476" stop-color="#15CF74"/>
<stop offset="0.801" stop-color="#06E775"/>
<stop offset="1" stop-color="#00F076"/>
</linearGradient>
</defs>
</svg>
